<?xml version="1.0" standalone="no"?>
<!DOCTYPE svg PUBLIC "-//W3C//DTD SVG 1.1//EN" "http://www.w3.org/Graphics/SVG/1.1/DTD/svg11.dtd" >
<!--
2018-10-27: Created with FontForge (http://fontforge.org)
-->
<svg xmlns="http://www.w3.org/2000/svg" xmlns:xlink="http://www.w3.org/1999/xlink" version="1.1">
<metadata>
Created by FontForge 20170925 at Sat Oct 27 23:17:19 2018
 By Megumi Hano

</metadata>
<defs>
<font id="feathericon" horiz-adv-x="427" >
  <font-face 
    font-family="feathericon"
    font-weight="400"
    font-stretch="normal"
    units-per-em="512"
    panose-1="2 0 5 3 0 0 0 0 0 0"
    ascent="448"
    descent="-64"
    bbox="-0.75 -21.25 427.25 405.25"
    underline-thickness="22.4"
    underline-position="-44.8"
    unicode-range="U+0020-F20A"
  />
    <missing-glyph />
    <glyph glyph-name="space" unicode=" " horiz-adv-x="200" 
 />
    <glyph glyph-name="taxi" unicode="&#xf204;" horiz-adv-x="384" 
d="M113 340l15 44h128l15 -44c40 -7 70 -42 70 -84v-64c24 0 43 -19 43 -43v-106c0 -24 -19 -43 -43 -43s-42 19 -42 43h-214c0 -24 -18 -43 -42 -43s-43 19 -43 43v106c0 24 19 43 43 43v64c0 42 30 77 70 84zM128 299c-24 0 -43 -19 -43 -43v-64h214v64
c0 24 -19 43 -43 43h-128zM64 107c12 0 21 9 21 21s-9 21 -21 21s-21 -9 -21 -21s9 -21 21 -21zM320 107c12 0 21 9 21 21s-9 21 -21 21s-21 -9 -21 -21s9 -21 21 -21z" />
    <glyph glyph-name="equalizer" unicode="&#xf1a0;" 
d="M238 299c9 25 33 42 61 42s51 -17 60 -42h46c12 0 22 -10 22 -22s-10 -21 -22 -21h-46c-9 -25 -32 -43 -60 -43s-52 18 -61 43h-217c-12 0 -21 9 -21 21s9 22 21 22h217zM68 128c9 25 32 43 60 43s51 -18 60 -43h217c12 0 22 -9 22 -21s-10 -22 -22 -22h-217
c-9 -25 -32 -42 -60 -42s-51 17 -60 42h-47c-12 0 -21 10 -21 22s9 21 21 21h47zM299 256c12 0 21 9 21 21s-9 22 -21 22s-22 -10 -22 -22s10 -21 22 -21zM128 85c12 0 21 10 21 22s-9 21 -21 21s-21 -9 -21 -21s9 -22 21 -22z" />
    <glyph glyph-name="code" unicode="&#xf117;" horiz-adv-x="384" 
d="M384 199l-121 -120l-30 30l91 90l-91 91l30 30zM60 199l91 -90l-30 -30l-121 120l121 121l30 -30z" />
    <glyph glyph-name="shield" unicode="&#xf172;" horiz-adv-x="341" 
d="M43 90l128 -64v337h-128v-273zM43 405h256c24 0 42 -18 42 -42v-299l-170 -85l-171 85v299c0 24 19 42 43 42z" />
    <glyph glyph-name="rocket" unicode="&#xf14d;" horiz-adv-x="341" 
d="M213 -21h-85c-17 0 -35 24 -49 58l-58 -58l-21 21v85l51 51c-5 28 -8 54 -8 77c0 85 64 192 128 192s128 -107 128 -192c0 -23 -3 -49 -8 -77l50 -51v-85l-21 -21l-58 58c-14 -34 -32 -58 -49 -58zM171 21h34c1 1 3 4 4 6c7 11 16 28 23 50c15 44 24 99 24 136
c0 68 -52 150 -85 150s-86 -82 -86 -150c0 -37 10 -92 25 -136c7 -22 15 -39 22 -50c1 -2 3 -5 4 -6h35zM171 192c-24 0 -43 19 -43 43s19 42 43 42s42 -18 42 -42s-18 -43 -42 -43z" />
    <glyph glyph-name="trophy" unicode="&#xf158;" horiz-adv-x="341" 
d="M47 256h-4c-24 0 -43 19 -43 43s19 42 43 42v22c0 24 18 42 42 42h171c24 0 43 -18 43 -42v-22c24 0 42 -18 42 -42s-18 -43 -42 -43h-5c-13 -46 -53 -81 -102 -85v-86h21c24 0 43 -18 43 -42v-22h21c12 0 22 -9 22 -21s-10 -21 -22 -21h-213c-12 0 -21 9 -21 21
s9 21 21 21h21v22c0 24 19 42 43 42h21v86c-49 4 -89 39 -102 85zM85 363v-75c0 -41 34 -75 75 -75h21c41 0 75 34 75 75v75h-171z" />
    <glyph glyph-name="drop-up" unicode="&#xf124;" horiz-adv-x="299" 
d="M149 277l150 -170h-299z" />
    <glyph glyph-name="money" unicode="&#xf1a8;" 
d="M43 341h341c24 0 43 -18 43 -42v-214c0 -24 -19 -42 -43 -42h-341c-24 0 -43 18 -43 42v214c0 24 19 42 43 42zM341 299h-256c0 -24 -18 -43 -42 -43v-128c24 0 42 -19 42 -43h256c0 24 19 43 43 43v128c-24 0 -43 19 -43 43zM128 256h43v-128h-43v128zM256 171
c12 0 21 9 21 21s-9 21 -21 21s-21 -9 -21 -21s9 -21 21 -21zM256 128c-35 0 -64 29 -64 64s29 64 64 64s64 -29 64 -64s-29 -64 -64 -64z" />
    <glyph glyph-name="laptop" unicode="&#xf133;" 
d="M405 21h-384c-12 0 -21 10 -21 22s9 21 21 21h384c12 0 22 -9 22 -21s-10 -22 -22 -22zM64 320v-171h299v171h-299zM64 363h299c24 0 42 -19 42 -43v-171c0 -24 -18 -42 -42 -42h-299c-24 0 -43 18 -43 42v171c0 24 19 43 43 43z" />
    <glyph glyph-name="random" unicode="&#xf189;" horiz-adv-x="384" 
d="M21 85c-12 0 -21 10 -21 22s9 21 21 21h43l64 64l-64 64h-43c-12 0 -21 9 -21 21s9 22 21 22h64l86 -86l85 86h43v42l85 -64l-85 -64v43h-22l-64 -64l64 -64h22v43l85 -64l-85 -64v42h-43l-85 86l-86 -86h-64z" />
    <glyph glyph-name="remove-cart" unicode="&#xf1eb;" horiz-adv-x="341" 
d="M85 107h171c12 0 21 -10 21 -22s-9 -21 -21 -21h-192c-12 0 -21 9 -21 21v278h-22c-12 0 -21 9 -21 21s9 21 21 21h43c12 0 21 -9 21 -21v-43v-42v-107h188l26 107v42c24 0 42 -18 42 -42c0 -3 0 -7 -1 -10l-24 -106c-4 -20 -22 -34 -43 -34h-186h-2v-42zM75 -21
c-18 0 -32 14 -32 32s14 32 32 32s32 -14 32 -32s-14 -32 -32 -32zM267 -21c-18 0 -32 14 -32 32s14 32 32 32s32 -14 32 -32s-14 -32 -32 -32zM235 341c12 0 21 -9 21 -21s-9 -21 -21 -21h-86c-12 0 -21 9 -21 21s9 21 21 21h86z" />
    <glyph glyph-name="disabled" unicode="&#xf11f;" 
d="M213 -21c-118 0 -213 95 -213 213s95 213 213 213s214 -95 214 -213s-96 -213 -214 -213zM109 57c29 -22 65 -36 104 -36c94 0 171 77 171 171c0 39 -14 76 -36 105zM79 87l239 240c-29 22 -66 36 -105 36c-94 0 -170 -77 -170 -171c0 -39 14 -76 36 -105z" />
    <glyph glyph-name="align-left" unicode="&#xf196;" horiz-adv-x="299" 
d="M43 0c0 -12 -10 -21 -22 -21s-21 9 -21 21v384c0 12 9 21 21 21s22 -9 22 -21v-384zM128 256c-24 0 -43 19 -43 43s19 42 43 42h128c24 0 43 -18 43 -42s-19 -43 -43 -43h-128zM128 192h85c24 0 43 -19 43 -43s-19 -42 -43 -42h-85c-24 0 -43 18 -43 42s19 43 43 43z" />
    <glyph glyph-name="umbrella" unicode="&#xf1f2;" horiz-adv-x="384" 
d="M213 21c0 -24 -18 -42 -42 -42s-43 18 -43 42s19 43 43 43v107h-171c0 99 75 179 171 190v23c0 12 9 21 21 21s21 -9 21 -21v-23c96 -11 171 -91 171 -190h-171v-150zM49 213h286c-18 62 -75 107 -143 107s-125 -45 -143 -107z" />
    <glyph glyph-name="keyboard" unicode="&#xf132;" 
d="M0 277c0 24 19 43 43 43h341c24 0 43 -19 43 -43v-170c0 -24 -19 -43 -43 -43h-341c-24 0 -43 19 -43 43v170zM320 149v-42h64v42h-64zM256 149v-42h43v42h-43zM107 149v-42h128v42h-128zM43 149v-42h42v42h-42zM341 213v-42h43v42h-43zM277 213v-42h43v42h-43zM213 213
v-42h43v42h-43zM149 213v-42h43v42h-43zM43 213v-42h85v42h-85zM299 277v-42h85v42h-85zM235 277v-42h42v42h-42zM171 277v-42h42v42h-42zM107 277v-42h42v42h-42zM43 277v-42h42v42h-42z" />
    <glyph glyph-name="underline" unicode="&#xf1ae;" horiz-adv-x="256" 
d="M235 0h-214c-12 0 -21 9 -21 21s9 22 21 22h214c12 0 21 -10 21 -22s-9 -21 -21 -21zM256 363v-150c0 -71 -57 -128 -128 -128s-128 57 -128 128v150c0 12 9 21 21 21s22 -9 22 -21v-150c0 -47 38 -85 85 -85s85 38 85 85v150c0 12 10 21 22 21s21 -9 21 -21z" />
    <glyph glyph-name="watch-alt" unicode="&#xf1b0;" horiz-adv-x="256" 
d="M192 320h21c24 0 43 -19 43 -43v-170c0 -24 -19 -43 -43 -43h-21v-43c0 -24 -19 -42 -43 -42h-42c-24 0 -43 18 -43 42v43h-21c-24 0 -43 19 -43 43v170c0 24 19 43 43 43h21v43c0 24 19 42 43 42h42c24 0 43 -18 43 -42v-43zM43 277v-170h170v170h-170z" />
    <glyph glyph-name="video" unicode="&#xf15e;" 
d="M277 242l121 46c11 4 23 -2 27 -13c1 -2 2 -4 2 -7v-152c0 -12 -10 -21 -22 -21c-3 0 -5 0 -7 1l-121 45v-34c0 -24 -18 -43 -42 -43h-192c-24 0 -43 19 -43 43v170c0 24 19 43 43 43h192c24 0 42 -19 42 -43v-35z" />
    <glyph glyph-name="pause" unicode="&#xf187;" horiz-adv-x="213" 
d="M64 64c0 -12 -9 -21 -21 -21h-22c-12 0 -21 9 -21 21v256c0 12 9 21 21 21h22c12 0 21 -9 21 -21v-256zM213 64c0 -12 -9 -21 -21 -21h-21c-12 0 -22 9 -22 21v256c0 12 10 21 22 21h21c12 0 21 -9 21 -21v-256z" />
    <glyph glyph-name="layout" unicode="&#xf134;" 
d="M43 363h341c24 0 43 -19 43 -43v-256c0 -24 -19 -43 -43 -43h-341c-24 0 -43 19 -43 43v256c0 24 19 43 43 43zM43 320v-107h85v107h-85zM43 171v-107h85v107h-85zM171 320v-256h213v256h-213z" />
    <glyph glyph-name="notice-push" unicode="&#xf203;" horiz-adv-x="384" 
d="M299 213c-47 0 -86 39 -86 86s39 85 86 85s85 -38 85 -85s-38 -86 -85 -86zM43 341h128v-42h-128v-256h256v128h42v-128c0 -24 -18 -43 -42 -43h-256c-24 0 -43 19 -43 43v256c0 24 19 42 43 42z" />
    <glyph glyph-name="cage" unicode="&#xf1e7;" horiz-adv-x="341" 
d="M213 355c50 -18 86 -64 86 -120v-192h10c18 0 32 -14 32 -32s-14 -32 -32 -32h-277c-18 0 -32 14 -32 32s14 32 32 32h11v192c0 56 35 102 85 120v8c0 24 19 42 43 42s42 -18 42 -42v-8zM256 213h-64v-64h64v64zM256 256c-8 31 -33 56 -64 64v-64h64zM85 213v-64h64v64
h-64zM85 256h64v64c-31 -8 -56 -33 -64 -64zM256 107h-64v-64h64v64zM85 107v-64h64v64h-64z" />
    <glyph glyph-name="notice-off" unicode="&#xf201;" horiz-adv-x="341" 
d="M235 64v-21c0 -35 -29 -64 -64 -64s-64 29 -64 64v21h-86c-12 0 -21 9 -21 21s9 22 21 22h22v128c0 13 1 25 5 37l-27 27c-12 12 -12 30 0 42s31 12 43 0l235 -234h21c12 0 21 -10 21 -22s-9 -21 -21 -21h-85zM171 21c12 0 21 10 21 22v21h-43v-21c0 -12 10 -22 22 -22z
M104 344c14 8 29 14 45 17v23c0 12 10 21 22 21s21 -9 21 -21v-23c61 -10 107 -63 107 -126v-86z" />
    <glyph glyph-name="drop-right" unicode="&#xf123;" horiz-adv-x="171" 
d="M0 341l171 -149l-171 -149v298z" />
    <glyph glyph-name="desktop" unicode="&#xf11d;" 
d="M235 64h42c12 0 22 -9 22 -21s-10 -22 -22 -22h-128c-12 0 -21 10 -21 22s9 21 21 21h43v43h-149c-24 0 -43 18 -43 42v171c0 24 19 43 43 43h341c24 0 43 -19 43 -43v-171c0 -24 -19 -42 -43 -42h-149v-43zM43 320v-171h341v171h-341z" />
    <glyph glyph-name="terminal" unicode="&#xf154;" 
d="M43 363h341c24 0 43 -19 43 -43v-256c0 -24 -19 -43 -43 -43h-341c-24 0 -43 19 -43 43v256c0 24 19 43 43 43zM43 320v-256h341v256h-341zM213 149h128v-42h-128v42zM192 201l-76 -75l-30 30l45 45l-45 45l30 31z" />
    <glyph glyph-name="notice-active" unicode="&#xf200;" horiz-adv-x="341" 
d="M236 344c6 23 27 40 52 40c29 0 53 -24 53 -53c0 -28 -22 -52 -50 -54c5 -13 8 -27 8 -42v-128h21c12 0 21 -10 21 -22s-9 -21 -21 -21h-85v-21c0 -35 -29 -64 -64 -64s-64 29 -64 64v21h-86c-12 0 -21 9 -21 21s9 22 21 22h22v128c0 63 45 116 106 126v23
c0 12 10 21 22 21s21 -9 21 -21v-23c16 -3 31 -9 44 -17zM171 21c12 0 21 10 21 22v21h-43v-21c0 -12 10 -22 22 -22zM85 107h171v128c0 47 -38 85 -85 85s-86 -38 -86 -85v-128z" />
    <glyph glyph-name="octpus" unicode="&#xf1fc;" horiz-adv-x="341" 
d="M235 38v-38c0 -12 -10 -21 -22 -21s-21 9 -21 21v43h-43v-43c0 -12 -9 -21 -21 -21s-21 9 -21 21v38c-11 -10 -27 -17 -43 -17c-35 0 -64 29 -64 64c0 12 9 22 21 22s22 -10 22 -22s9 -21 21 -21s21 9 21 21v48c-39 27 -64 72 -64 123c0 82 68 149 150 149
s149 -67 149 -149c0 -51 -25 -96 -64 -123v-48c0 -12 9 -21 21 -21s22 9 22 21s9 22 21 22s21 -10 21 -22c0 -35 -29 -64 -64 -64c-16 0 -31 7 -42 17z" />
    <glyph glyph-name="location" unicode="&#xf138;" horiz-adv-x="256" 
d="M128 43c9 0 31 25 51 70c20 46 34 103 34 135c0 52 -38 93 -85 93s-85 -41 -85 -93c0 -32 14 -89 34 -135c20 -45 42 -70 51 -70zM128 0c-71 0 -128 173 -128 248s57 136 128 136s128 -61 128 -136s-57 -248 -128 -248zM128 213c-24 0 -43 19 -43 43s19 43 43 43
s43 -19 43 -43s-19 -43 -43 -43z" />
    <glyph glyph-name="tumbler-glass" unicode="&#xf209;" horiz-adv-x="299" 
d="M43 384h213c24 0 43 -19 43 -43v-213c0 -71 -57 -128 -128 -128h-43c-71 0 -128 57 -128 128v213c0 24 19 43 43 43zM43 341v-192h213v192h-213z" />
    <glyph glyph-name="mail" unicode="&#xf13c;" 
d="M43 235v-171h341v171l-171 -64zM43 320v-43l170 -64l171 64v43h-341zM43 363h341c24 0 43 -19 43 -43v-256c0 -24 -19 -43 -43 -43h-341c-24 0 -43 19 -43 43v256c0 24 19 43 43 43z" />
    <glyph glyph-name="folder" unicode="&#xf12a;" horiz-adv-x="384" 
d="M171 341h170c24 0 43 -18 43 -42v-256c0 -24 -19 -43 -43 -43h-298c-24 0 -43 19 -43 43v298c0 23 20 43 43 43h85zM43 299v-256h298v256h-298z" />
    <glyph glyph-name="drop-down" unicode="&#xf121;" horiz-adv-x="299" 
d="M0 277h299l-150 -170z" />
    <glyph glyph-name="columns" unicode="&#xf118;" 
d="M43 363h341c24 0 43 -19 43 -43v-256c0 -24 -19 -43 -43 -43h-341c-24 0 -43 19 -43 43v256c0 24 19 43 43 43zM299 320v-256h85v256h-85zM43 320v-256h85v256h-85zM171 320v-256h85v256h-85z" />
    <glyph glyph-name="apron" unicode="&#xf1fb;" horiz-adv-x="341" 
d="M121 277l-21 -128h-57v-128h256v128h-58l-21 128h-99zM128 384v-64h85v64c0 12 10 21 22 21s21 -9 21 -21v-64l21 -128h22c24 0 42 -19 42 -43v-128c0 -24 -18 -42 -42 -42h-256c-24 0 -43 18 -43 42v128c0 24 19 43 43 43h21l21 128v64c0 12 10 21 22 21s21 -9 21 -21z
M85 107h171v-43h-171v43z" />
    <glyph glyph-name="coffee" unicode="&#xf166;" horiz-adv-x="384" 
d="M21 85h342c12 0 21 -9 21 -21s-9 -21 -21 -21h-342c-12 0 -21 9 -21 21s9 21 21 21zM299 299h21c24 0 43 -19 43 -43s-19 -43 -43 -43h-21h-2c-10 -49 -53 -85 -105 -85h-43c-59 0 -106 48 -106 107v64c0 24 18 42 42 42h171c24 0 43 -18 43 -42zM85 299v-64
c0 -35 29 -64 64 -64h43c35 0 64 29 64 64v64h-171z" />
    <glyph glyph-name="stop" unicode="&#xf18b;" horiz-adv-x="299" 
d="M43 341h213c24 0 43 -18 43 -42v-214c0 -24 -19 -42 -43 -42h-213c-24 0 -43 18 -43 42v214c0 24 19 42 43 42z" />
    <glyph glyph-name="pocket" unicode="&#xf1dc;" 
d="M425 359c2 -4 2 -10 2 -14v-128l-2 -26c-6 -58 -36 -109 -83 -145c-1 -1 -2 -1 -3 -2v0c-24 -18 -51 -30 -80 -36h-1c-2 0 -3 -1 -5 -1c-13 -2 -26 -4 -39 -4c-14 0 -29 1 -43 4c-30 6 -58 19 -83 37h-1l-2 2c-47 35 -78 87 -84 145l-1 26v128c0 5 1 10 3 14
c6 15 20 25 36 25h312h37v0c16 0 31 -10 37 -25zM334 224c12 11 12 30 1 42s-29 12 -41 1l-80 -77l-81 77c-12 11 -30 11 -41 -1s-11 -31 1 -42l100 -96c6 -5 14 -8 21 -8s14 3 20 8z" />
    <glyph glyph-name="mention" unicode="&#xf164;" horiz-adv-x="384" 
d="M384 192c0 -41 -34 -75 -75 -75c-20 0 -38 8 -51 21c-16 -19 -39 -31 -66 -31c-47 0 -85 38 -85 85s38 85 85 85c16 0 30 -4 43 -11v11h42v-85c0 -18 14 -32 32 -32s32 14 32 32c0 82 -67 149 -149 149s-149 -67 -149 -149s67 -149 149 -149c28 0 55 7 77 21h66
c-35 -39 -86 -64 -143 -64c-106 0 -192 86 -192 192s86 192 192 192s192 -86 192 -192zM192 149c24 0 43 19 43 43s-19 43 -43 43s-43 -19 -43 -43s19 -43 43 -43z" />
    <glyph glyph-name="facebook" unicode="&#xf1d4;" 
d="M293 -21v165h55l9 64h-64v41c0 19 5 32 32 32h34v57c-6 1 -26 3 -50 3c-49 0 -83 -30 -83 -85v-48h-55v-64h55v-165h-202c-13 0 -24 10 -24 23v380c0 13 11 23 24 23h379c13 0 24 -10 24 -23v-380c0 -13 -11 -23 -24 -23h-110z" />
    <glyph glyph-name="tiled" unicode="&#xf156;" horiz-adv-x="341" 
d="M43 363h256c24 0 42 -19 42 -43v-256c0 -24 -18 -43 -42 -43h-256c-24 0 -43 19 -43 43v256c0 24 19 43 43 43zM192 171v-107h107v107h-107zM43 171v-107h106v107h-106zM192 320v-107h107v107h-107zM43 320v-107h106v107h-106z" />
    <glyph glyph-name="wordpress" unicode="&#xf1de;" 
d="M213 405c118 0 214 -95 214 -213s-96 -213 -214 -213s-213 95 -213 213s95 213 213 213zM213 -12c112 0 204 92 204 204s-92 204 -204 204s-203 -92 -203 -204s91 -204 203 -204zM30 192c0 27 6 51 16 74l87 -239c-61 30 -103 93 -103 165zM337 201c0 -16 -6 -34 -14 -59
l-18 -61l-66 197c11 1 20 2 20 2c10 1 9 16 -1 15c0 0 -29 -3 -48 -3c-18 0 -49 3 -49 3c-10 1 -11 -14 -1 -15c0 0 9 -1 19 -2l29 -78l-40 -120l-67 198c11 1 21 2 21 2c10 1 9 16 -1 15c0 0 -30 -3 -49 -3c-3 0 -8 1 -12 1c33 50 89 82 153 82c48 0 91 -18 124 -48h-2
c-18 0 -31 -15 -31 -32c0 -15 9 -28 18 -43c7 -12 15 -28 15 -51zM217 176l56 -154c0 -1 1 -2 1 -3c-19 -7 -40 -10 -61 -10c-18 0 -35 2 -51 7zM374 280c1 -6 1 -12 1 -19c0 -19 -4 -40 -14 -66l-56 -161c54 32 91 90 91 158c0 32 -8 62 -22 88z" />
    <glyph glyph-name="distribute-vertically" unicode="&#xf1c5;" 
d="M107 235h213c24 0 43 -19 43 -43s-19 -43 -43 -43h-213c-24 0 -43 19 -43 43s19 43 43 43zM21 85h384c12 0 22 -9 22 -21s-10 -21 -22 -21h-384c-12 0 -21 9 -21 21s9 21 21 21zM21 341h384c12 0 22 -9 22 -21s-10 -21 -22 -21h-384c-12 0 -21 9 -21 21s9 21 21 21z" />
    <glyph glyph-name="magic" unicode="&#xf177;" horiz-adv-x="384" 
d="M0 341l43 43l341 -341l-43 -43zM213 341l22 43l21 -43l43 -21l-43 -21l-21 -43l-22 43l-42 21zM43 128l21 43l21 -43l43 -21l-43 -22l-21 -42l-21 42l-43 22zM21 256l22 -21l-22 -22l-21 22zM320 235l21 -22l-21 -21l-21 21z" />
    <glyph glyph-name="ticket" unicode="&#xf155;" 
d="M0 235v42c0 24 19 43 43 43h341c24 0 43 -19 43 -43v-42c-24 0 -43 -19 -43 -43s19 -43 43 -43v-42c0 -24 -19 -43 -43 -43h-341c-24 0 -43 19 -43 43v42c24 0 43 19 43 43s-19 43 -43 43zM64 277v-170h299v170h-299zM107 235h213v-86h-213v86z" />
    <glyph glyph-name="difference" unicode="&#xf1c3;" horiz-adv-x="384" 
d="M256 128v-85c0 -24 -19 -43 -43 -43h-170c-24 0 -43 19 -43 43v170c0 24 19 43 43 43h85v85c0 24 19 43 43 43h170c24 0 43 -19 43 -43v-170c0 -24 -19 -43 -43 -43h-85zM171 256h85v-85h85v170h-170v-85zM43 213v-170h170v85h-85v85h-85z" />
    <glyph glyph-name="disappointed" unicode="&#xf1b8;" 
d="M213 -21c-118 0 -213 95 -213 213s95 213 213 213s214 -95 214 -213s-96 -213 -214 -213zM213 21c94 0 171 77 171 171s-77 171 -171 171s-170 -77 -170 -171s76 -171 170 -171zM299 85h-29s-9 57 -57 57s-57 -57 -57 -57h-28c0 47 38 86 85 86s86 -39 86 -86zM251 252
l-16 4v21l85 -21v-21l-26 6c3 -5 5 -11 5 -17c0 -18 -14 -32 -32 -32s-32 14 -32 32c0 12 6 23 16 28zM133 241l-26 -6v21l85 21v-21l-16 -4c10 -5 16 -16 16 -28c0 -18 -14 -32 -32 -32s-32 14 -32 32c0 6 2 12 5 17z" />
    <glyph glyph-name="bread" unicode="&#xf206;" horiz-adv-x="384" 
d="M299 43v185l21 12c13 8 21 22 21 37v22c0 24 -18 42 -42 42h-214c-24 0 -42 -18 -42 -42v-22c0 -15 8 -29 21 -37l21 -12v-185h214zM341 43c0 -24 -18 -43 -42 -43h-214c-24 0 -42 19 -42 43v160c-26 15 -43 42 -43 74v22c0 47 38 85 85 85h214c47 0 85 -38 85 -85v-22
c0 -32 -17 -59 -43 -74v-160z" />
    <glyph glyph-name="distribute-horizontally" unicode="&#xf1cf;" horiz-adv-x="299" 
d="M43 0c0 -12 -10 -21 -22 -21s-21 9 -21 21v384c0 12 9 21 21 21s22 -9 22 -21v-384zM299 0c0 -12 -10 -21 -22 -21s-21 9 -21 21v384c0 12 9 21 21 21s22 -9 22 -21v-384zM192 85c0 -24 -19 -42 -43 -42s-42 18 -42 42v214c0 24 18 42 42 42s43 -18 43 -42v-214z" />
    <glyph glyph-name="pie-chart" unicode="&#xf146;" 
d="M213 -21c-118 0 -213 95 -213 213s95 213 213 213s214 -95 214 -213s-96 -213 -214 -213zM213 363c-94 0 -170 -77 -170 -171s76 -171 170 -171s171 77 171 171h-171v171z" />
    <glyph glyph-name="wine-glass" unicode="&#xf161;" horiz-adv-x="213" 
d="M43 21h42v128c-47 0 -85 39 -85 86v128c0 24 19 42 43 42h128c24 0 42 -18 42 -42v-128c0 -47 -38 -86 -85 -86v-128h43c12 0 21 -9 21 -21s-9 -21 -21 -21h-128c-12 0 -22 9 -22 21s10 21 22 21zM43 363v-128c0 -24 18 -43 42 -43h43c24 0 43 19 43 43v128h-128z" />
    <glyph glyph-name="file-movie" unicode="&#xf1b4;" horiz-adv-x="341" 
d="M43 405h213l85 -85v-299c0 -24 -18 -42 -42 -42h-256c-24 0 -43 18 -43 42v342c0 24 19 42 43 42zM238 363h-195v-342h256v281h-61v61zM171 171c12 0 21 -10 21 -22v-64s-9 -21 -21 -21h-64c-12 0 -22 9 -22 21v64s10 22 22 22h64zM192 117l64 32v-64z" />
    <glyph glyph-name="bar" unicode="&#xf105;" horiz-adv-x="384" 
d="M0 107h384v-43h-384v43zM0 213h384v-42h-384v42zM0 320h384v-43h-384v43z" />
    <glyph glyph-name="list-bullet" unicode="&#xf17c;" horiz-adv-x="384" 
d="M149 363h214c12 0 21 -10 21 -22s-9 -21 -21 -21h-214c-12 0 -21 9 -21 21s9 22 21 22zM149 213h214c12 0 21 -9 21 -21s-9 -21 -21 -21h-214c-12 0 -21 9 -21 21s9 21 21 21zM149 64h214c12 0 21 -9 21 -21s-9 -22 -21 -22h-214c-12 0 -21 10 -21 22s9 21 21 21zM43 299
c-24 0 -43 18 -43 42s19 43 43 43s42 -19 42 -43s-18 -42 -42 -42zM43 149c-24 0 -43 19 -43 43s19 43 43 43s42 -19 42 -43s-18 -43 -42 -43zM43 0c-24 0 -43 19 -43 43s19 42 43 42s42 -18 42 -42s-18 -43 -42 -43z" />
    <glyph glyph-name="gift" unicode="&#xf1ea;" horiz-adv-x="384" 
d="M341 192v-171c0 -24 -18 -42 -42 -42h-214c-24 0 -42 18 -42 42v171c-24 0 -43 19 -43 43v42c0 24 19 43 43 43h25c-2 7 -4 14 -4 21c0 35 29 64 64 64s64 -29 64 -64c0 35 29 64 64 64s64 -29 64 -64c0 -7 -2 -14 -4 -21h25c24 0 43 -19 43 -43v-42
c0 -24 -19 -43 -43 -43zM171 277h-128v-42h128v42zM213 277v-42h128v42h-128zM85 192v-171h214v171h-214zM128 320h21v21c0 12 -9 22 -21 22s-21 -10 -21 -22s9 -21 21 -21zM256 320c12 0 21 9 21 21s-9 22 -21 22s-21 -10 -21 -22v-21h21z" />
    <glyph glyph-name="edit" unicode="&#xf17f;" horiz-adv-x="341" 
d="M21 21h299c12 0 21 -9 21 -21s-9 -21 -21 -21h-299c-12 0 -21 9 -21 21s9 21 21 21zM0 128l213 213l64 -64l-213 -213h-64v64zM235 363l42 42l64 -64l-42 -42z" />
    <glyph glyph-name="cry" unicode="&#xf1b7;" 
d="M160 192c-18 0 -32 14 -32 32s14 32 32 32s32 -14 32 -32s-14 -32 -32 -32zM277 107h-21s-7 42 -43 42s-42 -42 -42 -42h-22c0 35 29 64 64 64s64 -29 64 -64zM267 192c-18 0 -32 14 -32 32s14 32 32 32s32 -14 32 -32s-14 -32 -32 -32zM213 21c94 0 171 77 171 171
s-77 171 -171 171s-170 -77 -170 -171s76 -171 170 -171zM213 -21c-118 0 -213 95 -213 213s95 213 213 213s214 -95 214 -213s-96 -213 -214 -213zM299 128c-12 0 -22 9 -22 21c0 8 8 22 22 43c14 -21 21 -35 21 -43c0 -12 -9 -21 -21 -21z" />
    <glyph glyph-name="upload" unicode="&#xf159;" horiz-adv-x="341" 
d="M192 324v-239h-43v239l-69 -70l-30 31l121 120l120 -120l-30 -31zM21 43h299c12 0 21 -10 21 -22s-9 -21 -21 -21h-299c-12 0 -21 9 -21 21s9 22 21 22z" />
    <glyph glyph-name="heart" unicode="&#xf12e;" horiz-adv-x="384" 
d="M192 21c-47 10 -192 91 -192 235c0 59 48 107 107 107c35 0 66 -17 85 -43c19 26 50 43 85 43c59 0 107 -48 107 -107c0 -144 -145 -225 -192 -235z" />
    <glyph glyph-name="text-align-center" unicode="&#xf1cb;" horiz-adv-x="341" 
d="M320 299h-299c-12 0 -21 9 -21 21s9 21 21 21h299c12 0 21 -9 21 -21s-9 -21 -21 -21zM277 213h-213c-12 0 -21 10 -21 22s9 21 21 21h213c12 0 22 -9 22 -21s-10 -22 -22 -22zM320 128h-299c-12 0 -21 9 -21 21s9 22 21 22h299c12 0 21 -10 21 -22s-9 -21 -21 -21z
M277 43h-213c-12 0 -21 9 -21 21s9 21 21 21h213c12 0 22 -9 22 -21s-10 -21 -22 -21z" />
    <glyph glyph-name="vector" unicode="&#xf15d;" 
d="M128 21c0 -24 -19 -42 -43 -42h-42c-24 0 -43 18 -43 42v43c0 24 19 43 43 43v170c-24 0 -43 19 -43 43v43c0 24 19 42 43 42h42c24 0 43 -18 43 -42h171c0 24 18 42 42 42h43c24 0 43 -18 43 -42v-43c0 -24 -19 -43 -43 -43v-170c24 0 43 -19 43 -43v-43
c0 -24 -19 -42 -43 -42h-43c-24 0 -42 18 -42 42h-171zM128 320c0 -24 -19 -43 -43 -43v-170c24 0 43 -19 43 -43h171c0 24 18 43 42 43v170c-24 0 -42 19 -42 43h-171zM43 363v-43h42v43h-42zM341 363v-43h43v43h-43zM341 64v-43h43v43h-43zM43 64v-43h42v43h-42z" />
    <glyph glyph-name="activity" unicode="&#xf1e2;" horiz-adv-x="299" 
d="M128 43c0 -12 -9 -22 -21 -22s-22 10 -22 22v234c0 12 10 22 22 22s21 -10 21 -22v-234zM43 43c0 -12 -10 -22 -22 -22s-21 10 -21 22v149c0 12 9 21 21 21s22 -9 22 -21v-149zM171 43v192c0 12 9 21 21 21s21 -9 21 -21v-192c0 -12 -9 -22 -21 -22s-21 10 -21 22z
M256 341c0 12 9 22 21 22s22 -10 22 -22v-298c0 -12 -10 -22 -22 -22s-21 10 -21 22v298z" />
    <glyph glyph-name="sitemap" unicode="&#xf150;" horiz-adv-x="384" 
d="M341 128c24 0 43 -19 43 -43v-42c0 -24 -19 -43 -43 -43h-42c-24 0 -43 19 -43 43v42c0 24 19 43 43 43v43h-214v-43c24 0 43 -19 43 -43v-42c0 -24 -19 -43 -43 -43h-42c-24 0 -43 19 -43 43v42c0 24 19 43 43 43v43c0 24 18 42 42 42h86v43c-24 0 -43 19 -43 43v42
c0 24 19 43 43 43h42c24 0 43 -19 43 -43v-42c0 -24 -19 -43 -43 -43v-43h86c24 0 42 -18 42 -42v-43zM43 85v-42h42v42h-42zM299 85v-42h42v42h-42zM171 341v-42h42v42h-42z" />
    <glyph glyph-name="check-circle" unicode="&#xf19a;" 
d="M213 -21c-118 0 -213 95 -213 213s95 213 213 213s214 -95 214 -213s-96 -213 -214 -213zM128 235l-43 -43l107 -107l149 150l-42 42l-107 -106z" />
    <glyph glyph-name="arrow-down" unicode="&#xf100;" horiz-adv-x="341" 
d="M43 299l128 -128l128 128l42 -43l-170 -171l-171 171z" />
    <glyph glyph-name="google" unicode="&#xf1d8;" horiz-adv-x="418" 
d="M213 151v80h200c3 -13 5 -26 5 -44c0 -122 -82 -208 -205 -208c-118 0 -213 95 -213 213s95 213 213 213c58 0 106 -20 143 -55l-61 -59c-15 15 -42 31 -82 31c-71 0 -128 -58 -128 -130s57 -131 128 -131c82 0 112 57 118 90h-118v0z" />
    <glyph glyph-name="instagram" unicode="&#xf1da;" 
d="M213 405c58 0 65 0 88 -1s38 -5 52 -10s26 -12 38 -24s19 -24 24 -38s9 -29 10 -52s2 -30 2 -88s-1 -65 -2 -88s-5 -38 -10 -52s-12 -26 -24 -38s-24 -19 -38 -24s-29 -9 -52 -10s-30 -1 -88 -1s-65 0 -88 1s-37 5 -51 10s-26 12 -38 24s-20 24 -25 38s-9 29 -10 52
s-1 30 -1 88s0 65 1 88s5 38 10 52s13 26 25 38s24 19 38 24s28 9 51 10s30 1 88 1zM213 367c-57 0 -64 0 -86 -1c-21 -1 -31 -5 -39 -8c-10 -4 -18 -9 -25 -16s-12 -14 -16 -24c-3 -8 -6 -19 -7 -40c-1 -22 -2 -29 -2 -86s1 -64 2 -86c1 -21 4 -32 7 -40
c4 -10 9 -17 16 -24s15 -12 25 -16c8 -3 18 -7 39 -8c22 -1 29 -1 86 -1s65 0 87 1c21 1 31 5 39 8c10 4 18 9 25 16s12 14 16 24c3 8 6 19 7 40c1 22 1 29 1 86s0 64 -1 86c-1 21 -4 32 -7 40c-4 10 -9 17 -16 24s-15 12 -25 16c-8 3 -18 7 -39 8c-22 1 -30 1 -87 1z
M213 121c39 0 71 32 71 71s-32 71 -71 71s-71 -32 -71 -71s32 -71 71 -71zM213 302c61 0 110 -49 110 -110s-49 -110 -110 -110s-109 49 -109 110s48 110 109 110zM353 306c0 -14 -12 -26 -26 -26s-25 12 -25 26s11 25 25 25s26 -11 26 -25z" />
    <glyph glyph-name="beginner" unicode="&#xf1f7;" horiz-adv-x="384" 
d="M192 287l-149 52v-221l149 -69v238zM56 382l136 -48l136 48c22 8 47 -5 54 -28c1 -5 2 -10 2 -15v-221c0 -18 -10 -34 -25 -41l-167 -77l-167 77c-15 7 -25 23 -25 41v221c0 25 19 45 43 45c5 0 9 0 13 -2z" />
    <glyph glyph-name="picture" unicode="&#xf1a9;" 
d="M43 320v-256h341v256h-341zM43 363h341c24 0 43 -19 43 -43v-256c0 -24 -19 -43 -43 -43h-341c-24 0 -43 19 -43 43v256c0 24 19 43 43 43zM117 213c-18 0 -32 14 -32 32s14 32 32 32s32 -14 32 -32s-14 -32 -32 -32zM107 149l42 43l43 -43l85 86l64 -64v-64h-234v42z
" />
    <glyph glyph-name="globe" unicode="&#xf12c;" 
d="M0 192c0 118 95 213 213 213s214 -95 214 -213s-96 -213 -214 -213s-213 95 -213 213zM43 192c0 -94 76 -171 170 -171s171 77 171 171s-77 171 -171 171s-170 -77 -170 -171zM133 225c5 11 14 42 20 42s4 -16 10 -17c5 -1 1 7 14 8s26 -6 26 -6s16 -4 30 0
c0 0 -8 11 1 15s22 -10 22 -19s-20 -15 -20 -15l20 -12s6 19 19 19c11 0 25 -20 18 -29s-10 -3 -10 -3s-21 -20 -27 -24s-15 0 -15 0s-4 -7 0 -10c8 -8 27 -16 27 -16s61 -10 63 -22s-48 -75 -56 -75h-19c-8 13 12 57 12 57s-10 11 -12 18s4 19 4 19l-27 13s-15 -1 -22 5
s-11 38 -11 38l-26 19s-23 -29 -30 -25s-16 9 -11 20zM274 270c-18 0 -62 23 -55 35c0 18 46 15 56 15s34 -7 47 -18s-5 -26 -12 -32s-18 0 -36 0z" />
    <glyph glyph-name="smile-alt" unicode="&#xf1bd;" 
d="M213 21c94 0 171 77 171 171s-77 171 -171 171s-170 -77 -170 -171s76 -171 170 -171zM213 -21c-118 0 -213 95 -213 213s95 213 213 213s214 -95 214 -213s-96 -213 -214 -213zM149 171c0 -35 29 -64 64 -64s64 29 64 64h22c0 -47 -39 -86 -86 -86s-85 39 -85 86h21z
M160 213c-18 0 -32 14 -32 32s14 32 32 32s32 -14 32 -32s-14 -32 -32 -32zM267 213c-18 0 -32 14 -32 32s14 32 32 32s32 -14 32 -32s-14 -32 -32 -32z" />
    <glyph glyph-name="messanger" unicode="&#xf1e1;" horiz-adv-x="422" 
d="M233 141l116 122l-105 -58l-55 56l-115 -122l105 58zM211 405v0c117 0 211 -88 211 -197s-94 -198 -211 -198c-21 0 -41 4 -60 9l-73 -40v75c-48 36 -78 92 -78 154c0 109 94 197 211 197z" />
    <glyph glyph-name="sync" unicode="&#xf194;" horiz-adv-x="384" 
d="M83 125c22 -37 63 -61 109 -61c56 0 103 35 121 85h44c-19 -74 -85 -128 -165 -128c-58 0 -109 30 -140 74l-52 -52v128h128zM301 259c-22 37 -63 61 -109 61c-56 0 -103 -35 -121 -85h-44c19 74 85 128 165 128c58 0 109 -30 140 -74l52 52v-128h-128z" />
    <glyph glyph-name="comment-o" unicode="&#xf1d2;" horiz-adv-x="384" 
d="M43 0v89c-27 31 -43 71 -43 114c0 100 86 181 192 181s192 -81 192 -181s-86 -182 -192 -182c-37 0 -72 10 -101 27zM192 64c82 0 149 62 149 139s-67 138 -149 138s-149 -61 -149 -138s67 -139 149 -139z" />
    <glyph glyph-name="align-center" unicode="&#xf195;" horiz-adv-x="341" 
d="M149 171v42h-100c-27 0 -49 19 -49 43s22 43 49 43h100v85c0 12 10 21 22 21s21 -9 21 -21v-85h101c27 0 48 -19 48 -43s-21 -43 -48 -43h-101v-42h64c24 0 43 -19 43 -43s-19 -43 -43 -43h-64v-85c0 -12 -9 -21 -21 -21s-22 9 -22 21v85h-64c-24 0 -42 19 -42 43
s18 43 42 43h64z" />
    <glyph glyph-name="notice-on" unicode="&#xf202;" horiz-adv-x="341" 
d="M235 64v-21c0 -35 -29 -64 -64 -64s-64 29 -64 64v21h-86c-12 0 -21 9 -21 21s9 22 21 22h22v128c0 63 45 116 106 126v23c0 12 10 21 22 21s21 -9 21 -21v-23c61 -10 107 -63 107 -126v-128h21c12 0 21 -10 21 -22s-9 -21 -21 -21h-85zM171 21c12 0 21 10 21 22v21h-43
v-21c0 -12 10 -22 22 -22zM192 149v43h43c12 0 21 9 21 21s-9 22 -21 22h-43v42c0 12 -9 22 -21 22s-22 -10 -22 -22v-42h-42c-12 0 -22 -10 -22 -22s10 -21 22 -21h42v-43c0 -12 10 -21 22 -21s21 9 21 21z" />
    <glyph glyph-name="unlock" unicode="&#xf169;" horiz-adv-x="341" 
d="M64 235v64c0 59 48 106 107 106s106 -47 106 -106c0 -12 -9 -22 -21 -22s-21 10 -21 22c0 35 -29 64 -64 64s-64 -29 -64 -64v-64h192c24 0 42 -19 42 -43v-171c0 -24 -18 -42 -42 -42h-256c-24 0 -43 18 -43 42v171c0 24 19 43 43 43h21zM43 192v-171h256v171h-256z
M213 149h43v-85h-43v85z" />
    <glyph glyph-name="export" unicode="&#xf16e;" horiz-adv-x="341" 
d="M192 324v-239h-43v239l-69 -70l-30 31l121 120l120 -120l-30 -31zM0 107h43v-86h256v86h42v-86c0 -23 -19 -42 -42 -42h-256c-23 0 -43 20 -43 42v86z" />
    <glyph glyph-name="arrow-left" unicode="&#xf101;" horiz-adv-x="213" 
d="M171 363l42 -43l-128 -128l128 -128l-42 -43l-171 171z" />
    <glyph glyph-name="add-cart" unicode="&#xf1e6;" horiz-adv-x="341" 
d="M85 107h171c12 0 21 -10 21 -22s-9 -21 -21 -21h-192c-12 0 -21 9 -21 21v278h-22c-12 0 -21 9 -21 21s9 21 21 21h43c12 0 21 -9 21 -21v-43v-42v-107h188l26 107v42c24 0 42 -18 42 -42c0 -3 0 -7 -1 -10l-24 -106c-4 -20 -22 -34 -43 -34h-186h-2v-42zM75 -21
c-18 0 -32 14 -32 32s14 32 32 32s32 -14 32 -32s-14 -32 -32 -32zM267 -21c-18 0 -32 14 -32 32s14 32 32 32s32 -14 32 -32s-14 -32 -32 -32zM213 341h22c12 0 21 -9 21 -21s-9 -21 -21 -21h-22v-22c0 -12 -9 -21 -21 -21s-21 9 -21 21v22h-22c-12 0 -21 9 -21 21
s9 21 21 21h22v22c0 12 9 21 21 21s21 -9 21 -21v-22z" />
    <glyph glyph-name="close" unicode="&#xf114;" horiz-adv-x="302" 
d="M121 190l-121 121l30 30l121 -120l121 120l30 -30l-121 -121l121 -120l-30 -30l-121 120l-121 -120l-30 30z" />
    <glyph glyph-name="calendar" unicode="&#xf10f;" horiz-adv-x="384" 
d="M107 363h170v42h43v-42h21c24 0 43 -19 43 -43v-299c0 -24 -19 -42 -43 -42h-298c-24 0 -43 18 -43 42v299c0 24 19 43 43 43h21v42h43v-42zM43 277v-256h298v256h-298zM85 213h43v-42h-43v42zM171 213h42v-42h-42v42zM256 213h43v-42h-43v42zM256 128h43v-43h-43v43z
M171 128h42v-43h-42v43zM85 128h43v-43h-43v43z" />
    <glyph glyph-name="align-vertically" unicode="&#xf1c1;" 
d="M320 171v-43c0 -24 -19 -43 -43 -43s-42 19 -42 43v43h-43v-101c0 -27 -19 -49 -43 -49s-42 22 -42 49v101h-86c-12 0 -21 9 -21 21s9 21 21 21h86v101c0 27 18 49 42 49s43 -22 43 -49v-101h43v43c0 24 18 43 42 43s43 -19 43 -43v-43h85c12 0 22 -9 22 -21
s-10 -21 -22 -21h-85z" />
    <glyph glyph-name="sunrise" unicode="&#xf1f1;" 
d="M405 128h-384c-12 0 -21 9 -21 21s9 22 21 22h22c0 94 76 170 170 170s171 -76 171 -170h21c12 0 22 -10 22 -22s-10 -21 -22 -21zM341 43h-256c-12 0 -21 9 -21 21s9 21 21 21h256c12 0 22 -9 22 -21s-10 -21 -22 -21zM85 171h256c0 71 -57 128 -128 128
s-128 -57 -128 -128z" />
    <glyph glyph-name="app-menu" unicode="&#xf198;" horiz-adv-x="341" 
d="M256 107h85v-86h-85v86zM128 107h85v-86h-85v86zM0 107h85v-86h-85v86zM256 235h85v-86h-85v86zM128 235h85v-86h-85v86zM0 235h85v-86h-85v86zM256 363h85v-86h-85v86zM128 363h85v-86h-85v86zM0 363h85v-86h-85v86z" />
    <glyph glyph-name="palette" unicode="&#xf165;" 
d="M182 -19c6 12 10 25 10 40c0 47 -38 86 -85 86c-28 0 -55 -15 -70 -36c-24 34 -37 76 -37 121c0 118 95 213 213 213s214 -95 214 -213s-96 -213 -214 -213c-11 0 -21 0 -31 2zM149 256c24 0 43 19 43 43s-19 42 -43 42s-42 -18 -42 -42s18 -43 42 -43zM277 256
c24 0 43 19 43 43s-19 42 -43 42s-42 -18 -42 -42s18 -43 42 -43zM341 149c24 0 43 19 43 43s-19 43 -43 43s-42 -19 -42 -43s18 -43 42 -43zM85 149c24 0 43 19 43 43s-19 43 -43 43s-42 -19 -42 -43s18 -43 42 -43zM277 43c24 0 43 18 43 42s-19 43 -43 43
s-42 -19 -42 -43s18 -42 42 -42z" />
    <glyph glyph-name="scale" unicode="&#xf1c9;" horiz-adv-x="384" 
d="M168 64c-9 -37 -43 -64 -83 -64c-47 0 -85 38 -85 85c0 40 27 74 64 83v3c0 44 27 82 65 98c6 65 61 115 127 115c71 0 128 -57 128 -128c0 -66 -50 -121 -115 -127c-16 -38 -54 -65 -98 -65h-3zM173 277c57 -1 103 -47 104 -104c37 9 64 43 64 83c0 47 -38 85 -85 85
c-40 0 -74 -27 -83 -64zM168 107h3c35 0 64 29 64 64s-29 64 -64 64s-64 -29 -64 -64v-3c30 -8 53 -31 61 -61zM85 43c24 0 43 18 43 42s-19 43 -43 43s-42 -19 -42 -43s18 -42 42 -42z" />
    <glyph glyph-name="clock" unicode="&#xf113;" 
d="M213 -21c-118 0 -213 95 -213 213s95 213 213 213s214 -95 214 -213s-96 -213 -214 -213zM384 192c0 94 -77 171 -171 171s-170 -77 -170 -171s76 -171 170 -171s171 77 171 171zM299 213c12 0 21 -9 21 -21s-9 -21 -21 -21h-64c-23 0 -43 19 -43 42v86c0 12 9 21 21 21
s22 -9 22 -21v-86h64z" />
    <glyph glyph-name="comments" unicode="&#xf11b;" 
d="M51 136l-30 -29v59c-14 20 -21 44 -21 69c0 71 62 128 139 128c69 0 127 -48 137 -109c7 1 15 2 23 2c71 0 128 -52 128 -117c0 -24 -9 -46 -22 -65v-53l-26 26c-22 -16 -49 -26 -80 -26c-60 0 -111 39 -125 90c-11 -3 -23 -4 -35 -4c-33 0 -64 11 -88 29zM139 149
c54 0 96 40 96 86s-42 85 -96 85s-96 -39 -96 -85s42 -86 96 -86zM214 127c6 -35 42 -63 85 -63c48 0 85 34 85 75s-37 74 -85 74c-8 0 -16 -1 -24 -3c-7 -35 -30 -64 -61 -83z" />
    <glyph glyph-name="moon" unicode="&#xf1ef;" horiz-adv-x="341" 
d="M191 384c-52 -29 -86 -85 -86 -149c0 -94 75 -171 168 -171c24 0 47 5 68 15c-34 -48 -89 -79 -152 -79c-104 0 -189 86 -189 192s85 192 189 192h2z" />
    <glyph glyph-name="file-powerpoint" unicode="&#xf1a3;" horiz-adv-x="341" 
d="M43 405h213l85 -85v-299c0 -24 -18 -42 -42 -42h-256c-24 0 -43 18 -43 42v342c0 24 19 42 43 42zM238 363h-195v-342h256v281h-61v61zM128 107v-43h-43v171h107c35 0 64 -29 64 -64s-29 -64 -64 -64h-64zM128 192v-43h64c12 0 21 10 21 22s-9 21 -21 21h-64z" />
    <glyph glyph-name="intersect" unicode="&#xf1c7;" horiz-adv-x="384" 
d="M256 128v-85c0 -24 -19 -43 -43 -43h-170c-24 0 -43 19 -43 43v170c0 24 19 43 43 43h85v85c0 24 19 43 43 43h170c24 0 43 -19 43 -43v-170c0 -24 -19 -43 -43 -43h-85zM149 149h86v86h-86v-86z" />
    <glyph glyph-name="timeline" unicode="&#xf1ad;" horiz-adv-x="384" 
d="M132 85c9 25 32 43 60 43s51 -18 60 -43h111l21 -21l-21 -21h-111c-9 -25 -32 -43 -60 -43s-51 18 -60 43h-132l21 21l-21 21h132zM192 43c12 0 21 9 21 21s-9 21 -21 21s-21 -9 -21 -21s9 -21 21 -21zM235 192l-43 -43l-43 43h-64c-24 0 -42 19 -42 43v106
c0 24 18 43 42 43h214c24 0 42 -19 42 -43v-106c0 -24 -18 -43 -42 -43h-64zM85 341v-106h86l21 -22l21 22h86v106h-214z" />
    <glyph glyph-name="print" unicode="&#xf171;" horiz-adv-x="341" 
d="M64 213v150c0 24 19 42 43 42h128c24 0 42 -18 42 -42v-150h22c24 0 42 -18 42 -42v-64c0 -23 -19 -43 -42 -43h-22v-43c0 -24 -18 -42 -42 -42h-128c-24 0 -43 18 -43 42v43h-21c-23 0 -43 20 -43 43v64c0 24 19 42 43 42h21zM107 363v-150h128v150h-128zM213 171v-43
h43v43h-43zM107 64v-43h128v43h-128z" />
    <glyph glyph-name="import" unicode="&#xf16f;" horiz-adv-x="341" 
d="M192 167l69 69l30 -30l-120 -121l-121 121l30 30l69 -69v238h43v-238zM0 107h43v-86h256v86h42v-86c0 -23 -19 -42 -42 -42h-256c-23 0 -43 20 -43 42v86z" />
    <glyph glyph-name="text-size" unicode="&#xf17b;" horiz-adv-x="384" 
d="M224 96l51 154h47l62 -186h-42l-12 41h-63l-14 -41h-18v0h-58l-17 57h-87l-19 -57h-54l85 256h64zM85 171h64l-32 85zM275 142h47l-23 62z" />
    <glyph glyph-name="check-circle-o" unicode="&#xf19b;" 
d="M213 21c94 0 171 77 171 171s-77 171 -171 171s-170 -77 -170 -171s76 -171 170 -171zM213 -21c-118 0 -213 95 -213 213s95 213 213 213s214 -95 214 -213s-96 -213 -214 -213zM128 235l64 -64l107 106l42 -42l-149 -150l-107 107z" />
    <glyph glyph-name="align-top" unicode="&#xf1c0;" horiz-adv-x="341" 
d="M17 384h307c9 0 17 -9 17 -21s-8 -22 -17 -22h-307c-9 0 -17 10 -17 22s8 21 17 21zM64 256c0 24 19 43 43 43s42 -19 42 -43v-213c0 -24 -18 -43 -42 -43s-43 19 -43 43v213zM192 256c0 24 19 43 43 43s42 -19 42 -43v-128c0 -24 -18 -43 -42 -43s-43 19 -43 43v128z
" />
    <glyph glyph-name="hash" unicode="&#xf12d;" horiz-adv-x="341" 
d="M128 128h85v128h-85v-128zM128 85v-64c0 -12 -9 -21 -21 -21s-22 9 -22 21v64h-64c-12 0 -21 10 -21 22s9 21 21 21h64v128h-64c-12 0 -21 9 -21 21s9 22 21 22h64v64c0 12 10 21 22 21s21 -9 21 -21v-64h85v64c0 12 10 21 22 21s21 -9 21 -21v-64h64c12 0 21 -10 21 -22
s-9 -21 -21 -21h-64v-128h64c12 0 21 -9 21 -21s-9 -22 -21 -22h-64v-64c0 -12 -9 -21 -21 -21s-22 9 -22 21v64h-85z" />
    <glyph glyph-name="bold" unicode="&#xf179;" horiz-adv-x="299" 
d="M0 21v342c0 23 20 42 43 42h106c64 0 127 -30 128 -105c0 -39 -20 -79 -54 -92v-3c43 -11 76 -43 76 -101c0 -22 -5 -40 -13 -56c-23 -47 -71 -69 -137 -69h-106c-23 0 -43 19 -43 42zM64 43h85c55 0 86 26 86 64s-31 64 -86 64h-85v-128zM64 235h64c51 0 85 18 85 54
s-32 52 -85 52h-64v-106z" />
    <glyph glyph-name="youtube" unicode="&#xf1e0;" 
d="M169 136l116 60l-116 60v-120zM422 277v0s5 -34 5 -69v-33c0 -35 -5 -69 -5 -69s-4 -29 -17 -42c-16 -17 -34 -17 -42 -18c-60 -4 -150 -5 -150 -5s-111 2 -145 5c-9 2 -31 1 -47 18c-13 13 -17 42 -17 42s-4 34 -4 69v33c0 35 4 69 4 69s4 29 17 42c16 17 35 17 43 18
c60 4 149 4 149 4v0s90 0 150 -4c8 -1 26 -1 42 -18c13 -13 17 -42 17 -42z" />
    <glyph glyph-name="bar-chart" unicode="&#xf106;" horiz-adv-x="384" 
d="M43 43h320c12 0 21 -10 21 -22s-9 -21 -21 -21h-342c-12 0 -21 9 -21 21v171c0 12 9 21 21 21s22 -9 22 -21v-149zM149 128c0 -12 -9 -21 -21 -21s-21 9 -21 21v192c0 12 9 21 21 21s21 -9 21 -21v-192zM192 128v149c0 12 9 22 21 22s22 -10 22 -22v-149
c0 -12 -10 -21 -22 -21s-21 9 -21 21zM277 363c0 12 10 21 22 21s21 -9 21 -21v-235c0 -12 -9 -21 -21 -21s-22 9 -22 21v235z" />
    <glyph glyph-name="align-bottom" unicode="&#xf1bf;" horiz-adv-x="341" 
d="M17 43h307c9 0 17 -10 17 -22s-8 -21 -17 -21h-307c-9 0 -17 9 -17 21s8 22 17 22zM149 128c0 -24 -18 -43 -42 -43s-43 19 -43 43v213c0 24 19 43 43 43s42 -19 42 -43v-213zM277 128c0 -24 -18 -43 -42 -43s-43 19 -43 43v128c0 24 19 43 43 43s42 -19 42 -43v-128z
" />
    <glyph glyph-name="cart" unicode="&#xf1e8;" horiz-adv-x="341" 
d="M85 107h171c12 0 21 -10 21 -22s-9 -21 -21 -21h-192c-12 0 -21 9 -21 21v278h-22c-12 0 -21 9 -21 21s9 21 21 21h43c12 0 21 -9 21 -21v-43h2h210c24 0 44 -18 44 -42c0 -3 0 -7 -1 -10l-24 -106c-4 -20 -22 -34 -43 -34h-186h-2v-42zM75 -21c-18 0 -32 14 -32 32
s14 32 32 32s32 -14 32 -32s-14 -32 -32 -32zM267 -21c-18 0 -32 14 -32 32s14 32 32 32s32 -14 32 -32s-14 -32 -32 -32zM85 299v-107h189l25 107h-214z" />
    <glyph glyph-name="user-minus" unicode="&#xf16c;" horiz-adv-x="384" 
d="M171 128c68 0 128 -12 170 -65v-42h-341v42c42 53 103 65 171 65zM171 192c-47 0 -86 38 -86 85s39 86 86 86s85 -39 85 -86s-38 -85 -85 -85zM277 149c-12 0 -21 10 -21 22s9 21 21 21h86c12 0 21 -9 21 -21s-9 -22 -21 -22h-86z" />
    <glyph glyph-name="yaki-dango" unicode="&#xf20a;" horiz-adv-x="128" 
d="M85 68v-68c0 -12 -9 -21 -21 -21s-21 9 -21 21v68c-25 9 -43 32 -43 60c0 22 12 42 29 53c-17 11 -29 32 -29 54s12 42 29 53c-17 11 -29 31 -29 53c0 35 29 64 64 64s64 -29 64 -64c0 -22 -12 -42 -29 -53c17 -11 29 -31 29 -53s-12 -43 -29 -54c17 -11 29 -31 29 -53
c0 -28 -18 -51 -43 -60zM64 320c12 0 21 9 21 21s-9 22 -21 22s-21 -10 -21 -22s9 -21 21 -21zM64 213c12 0 21 10 21 22s-9 21 -21 21s-21 -9 -21 -21s9 -22 21 -22zM64 107c12 0 21 9 21 21s-9 21 -21 21s-21 -9 -21 -21s9 -21 21 -21z" />
    <glyph glyph-name="italic" unicode="&#xf17a;" horiz-adv-x="299" 
d="M85 43l80 298h-58c-12 0 -22 10 -22 22s10 21 22 21h170c12 0 22 -9 22 -21s-10 -22 -22 -22h-68l-80 -298h63c12 0 21 -10 21 -22s-9 -21 -21 -21h-171c-12 0 -21 9 -21 21s9 22 21 22h64z" />
    <glyph glyph-name="logout" unicode="&#xf13b;" horiz-adv-x="384" 
d="M0 341c0 23 20 43 43 43h170v-43h-170v-298h170v-43h-170c-23 0 -43 20 -43 43v298zM302 213l-54 54l30 31l106 -106l-106 -106l-30 31l54 54h-140v42h140z" />
    <glyph glyph-name="bolt" unicode="&#xf1e3;" horiz-adv-x="256" 
d="M256 405l-128 -149h107l-192 -277l42 192h-85l85 234h171z" />
    <glyph glyph-name="key" unicode="&#xf131;" 
d="M211 213h216v-85c0 -12 -10 -21 -22 -21s-21 9 -21 21v43h-43v-43c0 -12 -9 -21 -21 -21s-21 9 -21 21v43h-88c-10 -49 -52 -86 -104 -86c-59 0 -107 48 -107 107s48 107 107 107c52 0 94 -37 104 -86zM107 128c35 0 64 29 64 64s-29 64 -64 64s-64 -29 -64 -64
s29 -64 64 -64z" />
    <glyph glyph-name="eject" unicode="&#xf182;" horiz-adv-x="256" 
d="M21 107h214c12 0 21 -10 21 -22s-9 -21 -21 -21h-214c-12 0 -21 9 -21 21s9 22 21 22zM149 311l103 -129c8 -10 4 -23 -7 -29c-4 -2 -9 -4 -14 -4h-206c-14 0 -25 10 -25 21c0 4 1 9 4 12l103 129c8 10 24 12 35 6c3 -2 5 -4 7 -6z" />
    <glyph glyph-name="subtract" unicode="&#xf1ca;" horiz-adv-x="384" 
d="M256 128v-85c0 -24 -19 -43 -43 -43h-170c-24 0 -43 19 -43 43v170c0 24 19 43 43 43h85v85c0 24 19 43 43 43h170c24 0 43 -19 43 -43v-170c0 -24 -19 -43 -43 -43h-85zM171 171h170v170h-170v-170z" />
    <glyph glyph-name="union" unicode="&#xf1ce;" horiz-adv-x="384" 
d="M256 128v-85c0 -24 -19 -43 -43 -43h-170c-24 0 -43 19 -43 43v170c0 24 19 43 43 43h85v85c0 24 19 43 43 43h170c24 0 43 -19 43 -43v-170c0 -24 -19 -43 -43 -43h-85zM213 171h128v170h-170v-128h-128v-170h170v128z" />
    <glyph glyph-name="plug" unicode="&#xf18f;" horiz-adv-x="384" 
d="M299 213v-42h64c12 0 21 -10 21 -22s-9 -21 -21 -21h-70c-7 -13 -21 -21 -37 -21h-64c-40 0 -74 27 -83 64h-2h-86c-12 0 -21 9 -21 21s9 21 21 21h86h2c9 37 43 64 83 64h64c16 0 30 -8 37 -21h70c12 0 21 -9 21 -21s-9 -22 -21 -22h-64z" />
    <glyph glyph-name="search" unicode="&#xf14e;" 
d="M306 130l114 -115c8 -8 8 -22 0 -30s-22 -8 -30 0l-115 115c-29 -22 -65 -36 -104 -36c-94 0 -171 77 -171 171s77 170 171 170s170 -76 170 -170c0 -39 -13 -76 -35 -105zM171 107c71 0 128 57 128 128s-57 128 -128 128s-128 -57 -128 -128s57 -128 128 -128z" />
    <glyph glyph-name="commenting" unicode="&#xf11a;" horiz-adv-x="384" 
d="M43 0v89c-27 31 -43 71 -43 114c0 100 86 181 192 181s192 -81 192 -181s-86 -182 -192 -182c-37 0 -72 10 -101 27zM192 64c82 0 149 62 149 139s-67 138 -149 138s-149 -61 -149 -138s67 -139 149 -139zM139 171c-18 0 -32 14 -32 32s14 32 32 32s32 -14 32 -32
s-14 -32 -32 -32zM245 171c-18 0 -32 14 -32 32s14 32 32 32s32 -14 32 -32s-14 -32 -32 -32z" />
    <glyph glyph-name="tablet" unicode="&#xf152;" horiz-adv-x="341" 
d="M43 363v-320h256v320h-256zM43 405h256c24 0 42 -18 42 -42v-342c0 -24 -18 -42 -42 -42h-256c-24 0 -43 18 -43 42v342c0 24 19 42 43 42z" />
    <glyph glyph-name="file-image" unicode="&#xf1b3;" horiz-adv-x="341" 
d="M43 405h213l85 -85v-299c0 -24 -18 -42 -42 -42h-256c-24 0 -43 18 -43 42v342c0 24 19 42 43 42zM238 363h-195v-342h256v281h-61v61zM235 149c-12 0 -22 10 -22 22s10 21 22 21s21 -9 21 -21s-9 -22 -21 -22zM85 107l66 64l62 -64l22 21l21 -21v-43h-171v43z" />
    <glyph glyph-name="credit-card" unicode="&#xf1e9;" 
d="M43 363h341c24 0 43 -19 43 -43v-256c0 -24 -19 -43 -43 -43h-341c-24 0 -43 19 -43 43v256c0 24 19 43 43 43zM43 320v-64h341v64h-341zM43 213v-149h341v149h-341zM85 149h86v-42h-86v42zM213 149h86v-42h-86v42z" />
    <glyph glyph-name="filter" unicode="&#xf173;" horiz-adv-x="341" 
d="M299 321v42h-256v-42l128 -92zM192 192v-171l-43 -42v213l-131 94c-11 8 -18 21 -18 35v42c0 24 19 42 43 42h256c24 0 42 -18 42 -42v-42c0 -14 -7 -27 -18 -35z" />
    <glyph glyph-name="mitarashi-dango" unicode="&#xf208;" horiz-adv-x="128" 
d="M85 68v-68c0 -12 -9 -21 -21 -21s-21 9 -21 21v68c-25 9 -43 32 -43 60c0 22 12 42 29 53c-17 11 -29 32 -29 54s12 42 29 53c-17 11 -29 31 -29 53c0 35 29 64 64 64s64 -29 64 -64c0 -22 -12 -42 -29 -53c17 -11 29 -31 29 -53s-12 -43 -29 -54c17 -11 29 -31 29 -53
c0 -28 -18 -51 -43 -60z" />
    <glyph glyph-name="plus" unicode="&#xf148;" horiz-adv-x="384" 
d="M213 171v-150c0 -12 -9 -21 -21 -21s-21 9 -21 21v150h-150c-12 0 -21 9 -21 21s9 21 21 21h150v150c0 12 9 21 21 21s21 -9 21 -21v-150h150c12 0 21 -9 21 -21s-9 -21 -21 -21h-150z" />
    <glyph glyph-name="fast-backward" unicode="&#xf184;" horiz-adv-x="384" 
d="M43 192c0 2 0 5 1 7s3 4 5 5l146 93c6 4 14 2 17 -5c1 -2 1 -5 1 -7v-93c0 2 1 5 2 7s3 4 5 5l146 93c6 4 13 2 16 -5c1 -2 2 -5 2 -7v-186c0 -8 -5 -14 -12 -14c-2 0 -4 1 -6 2l-146 93c-4 3 -7 7 -7 12v-93c0 -8 -5 -14 -12 -14c-2 0 -4 1 -6 2l-146 93
c-4 3 -6 7 -6 12v-85c0 -12 -11 -22 -22 -22s-21 10 -21 22v170c0 12 9 22 21 22s22 -10 22 -22v-85z" />
    <glyph glyph-name="folder-open" unicode="&#xf176;" horiz-adv-x="384" 
d="M171 341h170c24 0 43 -18 43 -42v-256c0 -24 -19 -43 -43 -43h-298c-24 0 -43 19 -43 43v298c0 23 20 43 43 43h85zM128 213v-170h213v170h-213zM43 299v-256h42v213h256v43h-298z" />
    <glyph glyph-name="picture-square" unicode="&#xf1e4;" horiz-adv-x="384" 
d="M43 341v-298h298v298h-298zM43 384h298c24 0 43 -19 43 -43v-298c0 -24 -19 -43 -43 -43h-298c-24 0 -43 19 -43 43v298c0 24 19 43 43 43zM117 235c-18 0 -32 14 -32 32s14 32 32 32s32 -14 32 -32s-14 -32 -32 -32zM85 149l43 43l43 -43l64 64l64 -64v-64h-214v64z" />
    <glyph glyph-name="open-mouth" unicode="&#xf1ba;" 
d="M213 21c94 0 171 77 171 171s-77 171 -171 171s-170 -77 -170 -171s76 -171 170 -171zM213 -21c-118 0 -213 95 -213 213s95 213 213 213s214 -95 214 -213s-96 -213 -214 -213zM213 85c-24 0 -42 19 -42 43s18 43 42 43s43 -19 43 -43s-19 -43 -43 -43zM267 213
c-18 0 -32 14 -32 32s14 32 32 32s32 -14 32 -32s-14 -32 -32 -32zM160 213c-18 0 -32 14 -32 32s14 32 32 32s32 -14 32 -32s-14 -32 -32 -32z" />
    <glyph glyph-name="arrow-right" unicode="&#xf102;" horiz-adv-x="213" 
d="M43 363l170 -171l-170 -171l-43 43l128 128l-128 128z" />
    <glyph glyph-name="login" unicode="&#xf13a;" horiz-adv-x="384" 
d="M140 213l-54 54l31 31l105 -106l-105 -106l-31 31l54 54h-140v42h140zM171 384h170c23 0 43 -20 43 -43v-298c0 -23 -20 -43 -43 -43h-170v43h170v298h-170v43z" />
    <glyph glyph-name="list-task" unicode="&#xf17e;" horiz-adv-x="341" 
d="M107 171h213c12 0 21 -10 21 -22s-9 -21 -21 -21h-213c-12 0 -22 9 -22 21s10 22 22 22zM107 85h213c12 0 21 -9 21 -21s-9 -21 -21 -21h-213c-12 0 -22 9 -22 21s10 21 22 21zM235 256h85c12 0 21 -9 21 -21s-9 -22 -21 -22h-85c-12 0 -22 10 -22 22s10 21 22 21z
M80 215l-80 80l30 30l50 -49l108 108l31 -30z" />
    <glyph glyph-name="warning" unicode="&#xf15f;" 
d="M213 21c94 0 171 77 171 171s-77 171 -171 171s-170 -77 -170 -171s76 -171 170 -171zM213 -21c-118 0 -213 95 -213 213s95 213 213 213s214 -95 214 -213s-96 -213 -214 -213zM192 107h43v-43h-43v43zM192 320h43v-171h-43v171z" />
    <glyph glyph-name="birthday-cake" unicode="&#xf163;" horiz-adv-x="384" 
d="M299 235c47 0 85 -39 85 -86v-106c0 -24 -19 -43 -43 -43h-298c-24 0 -43 19 -43 43v106c0 47 38 86 85 86v64h43v-64h43v64h42v-64h43v64h43v-64zM85 192c-24 0 -42 -19 -42 -43v-21h298v21c0 24 -18 43 -42 43h-214zM43 85v-42h298v42h-298zM85 363c12 0 22 9 22 21
c12 0 21 -9 21 -21v-22c0 -12 -9 -21 -21 -21s-22 9 -22 21v22zM171 363c12 0 21 9 21 21c12 0 21 -9 21 -21v-22c0 -12 -9 -21 -21 -21s-21 9 -21 21v22zM256 363c12 0 21 9 21 21c12 0 22 -9 22 -21v-22c0 -12 -10 -21 -22 -21s-21 9 -21 21v22z" />
    <glyph glyph-name="user" unicode="&#xf15a;" horiz-adv-x="341" 
d="M171 192c-47 0 -86 38 -86 85s39 86 86 86s85 -39 85 -86s-38 -85 -85 -85zM171 128c68 0 128 -12 170 -65v-42h-341v42c42 53 103 65 171 65z" />
    <glyph glyph-name="comment" unicode="&#xf119;" horiz-adv-x="384" 
d="M91 48l-48 -48v89c-27 31 -43 71 -43 114c0 100 86 181 192 181s192 -81 192 -181s-86 -182 -192 -182c-37 0 -72 10 -101 27z" />
    <glyph glyph-name="google-plus" unicode="&#xf1d9;" 
d="M136 204h128c1 -7 2 -14 2 -23c0 -78 -52 -133 -130 -133c-75 0 -136 61 -136 136s61 136 136 136c37 0 67 -13 91 -35l-37 -36c-10 10 -28 21 -54 21c-46 0 -84 -39 -84 -86s38 -85 84 -85c54 0 74 38 77 58h-77v47zM427 204v-39h-39v-39h-39v39h-39v39h39v38h39v-38h39
z" />
    <glyph glyph-name="gamepad" unicode="&#xf191;" 
d="M235 128h-43c-19 -26 -50 -43 -85 -43c-59 0 -107 48 -107 107s48 107 107 107h213c59 0 107 -48 107 -107s-48 -107 -107 -107c-35 0 -66 17 -85 43zM128 213v22c0 12 -9 21 -21 21s-22 -9 -22 -21v-22h-21c-12 0 -21 -9 -21 -21s9 -21 21 -21h21v-22
c0 -12 10 -21 22 -21s21 9 21 21v22h21c12 0 22 9 22 21s-10 21 -22 21h-21zM320 213c12 0 21 10 21 22s-9 21 -21 21s-21 -9 -21 -21s9 -22 21 -22zM299 149c12 0 21 10 21 22s-9 21 -21 21s-22 -9 -22 -21s10 -22 22 -22zM363 171c12 0 21 9 21 21s-9 21 -21 21
s-22 -9 -22 -21s10 -21 22 -21z" />
    <glyph glyph-name="bell" unicode="&#xf108;" horiz-adv-x="341" 
d="M235 64v-21c0 -35 -29 -64 -64 -64s-64 29 -64 64v21h-86c-12 0 -21 9 -21 21s9 22 21 22h22v128c0 63 45 116 106 126v23c0 12 10 21 22 21s21 -9 21 -21v-23c61 -10 107 -63 107 -126v-128h21c12 0 21 -10 21 -22s-9 -21 -21 -21h-85zM85 107h171v128
c0 47 -38 85 -85 85s-86 -38 -86 -85v-128zM171 21c12 0 21 10 21 22v21h-43v-21c0 -12 10 -22 22 -22z" />
    <glyph glyph-name="pot" unicode="&#xf1aa;" 
d="M384 213v-149c0 -24 -19 -43 -43 -43h-256c-24 0 -42 19 -42 43v149h-22c-12 0 -21 10 -21 22s9 21 21 21h384c12 0 22 -9 22 -21s-10 -22 -22 -22h-21zM85 213v-149h256v149h-256zM192 320v21c0 12 9 22 21 22s22 -10 22 -22v-21h128c12 0 21 -9 21 -21s-9 -22 -21 -22
h-299c-12 0 -21 10 -21 22s9 21 21 21h128z" />
    <glyph glyph-name="quote-left" unicode="&#xf14b;" horiz-adv-x="384" 
d="M85 0c-47 0 -85 38 -85 85c0 31 28 131 85 299h43c-28 -142 -43 -213 -43 -213c47 0 86 -39 86 -86s-39 -85 -86 -85zM299 0c-47 0 -86 38 -86 85c0 31 29 131 86 299h42l-42 -213c47 0 85 -39 85 -86s-38 -85 -85 -85z" />
    <glyph glyph-name="headphone" unicode="&#xf18e;" horiz-adv-x="384" 
d="M341 171c24 0 43 -19 43 -43v-85c0 -24 -19 -43 -43 -43s-42 19 -42 43v192c0 59 -48 106 -107 106s-107 -47 -107 -106v-192c0 -24 -18 -43 -42 -43s-43 19 -43 43v85c0 24 19 43 43 43v64c0 82 67 149 149 149s149 -67 149 -149v-64z" />
    <glyph glyph-name="drop-left" unicode="&#xf122;" horiz-adv-x="171" 
d="M171 341v-298l-171 149z" />
    <glyph glyph-name="insert-link" unicode="&#xf1a6;" 
d="M192 256h-85c-35 0 -64 -29 -64 -64s29 -64 64 -64h85v-43h-85c-59 0 -107 48 -107 107s48 107 107 107h85v-43zM235 128h85c35 0 64 29 64 64s-29 64 -64 64h-85v43h85c59 0 107 -48 107 -107s-48 -107 -107 -107h-85v43zM149 213h128c12 0 22 -9 22 -21
s-10 -21 -22 -21h-128c-12 0 -21 9 -21 21s9 21 21 21z" />
    <glyph glyph-name="brush" unicode="&#xf10c;" horiz-adv-x="384" 
d="M48 106c-4 -6 -5 -13 -5 -21c0 -24 18 -42 42 -42c8 0 15 1 21 5c-2 -25 -22 -45 -47 -48h-6h-53v53c0 28 21 50 48 53zM341 384c23 0 43 -22 43 -43l-277 -277l-43 43z" />
    <glyph glyph-name="rice-cracker" unicode="&#xf1fa;" 
d="M213 -21c-118 0 -213 95 -213 213s95 213 213 213s214 -95 214 -213s-96 -213 -214 -213zM107 59v112c0 24 18 42 42 42h128c24 0 43 -18 43 -42v-112c39 31 64 79 64 133c0 94 -77 171 -171 171s-170 -77 -170 -171c0 -54 25 -102 64 -133z" />
    <glyph glyph-name="table" unicode="&#xf1ac;" 
d="M43 363h341c24 0 43 -19 43 -43v-256c0 -24 -19 -43 -43 -43h-341c-24 0 -43 19 -43 43v256c0 24 19 43 43 43zM235 149v-85h149v85h-149zM43 149v-85h149v85h-149zM235 277v-85h149v85h-149zM43 277v-85h149v85h-149z" />
    <glyph glyph-name="wordpress-alt" unicode="&#xf1df;" 
d="M382 284v0c1 -6 1 -13 1 -20c0 -19 -4 -41 -15 -68l-58 -170c57 33 95 95 95 166c0 33 -8 65 -23 92zM240 282l69 -206l19 64c8 27 15 46 15 62c0 24 -9 40 -16 53c-10 16 -19 29 -19 45c0 18 13 34 32 34c1 0 2 -1 3 -1c-34 31 -80 51 -130 51c-67 0 -126 -35 -160 -87
h12c20 0 52 3 52 3c10 1 11 -15 1 -16c0 0 -10 -1 -22 -2l70 -208l42 126l-30 82l-20 2c-10 1 -9 17 1 16c0 0 31 -3 50 -3c20 0 51 3 51 3c10 1 12 -15 2 -16c0 0 -10 -1 -22 -2zM213 0v0c22 0 44 4 64 11c-1 1 -1 2 -1 3l-59 161l-58 -167c17 -5 35 -8 54 -8zM22 192v0
c0 -76 44 -142 108 -173l-92 251c-11 -24 -16 -50 -16 -78zM213 405v0c118 0 214 -95 214 -213s-96 -213 -214 -213s-213 95 -213 213s95 213 213 213z" />
    <glyph glyph-name="search-minus" unicode="&#xf16a;" 
d="M306 130l114 -115c8 -8 8 -22 0 -30s-22 -8 -30 0l-115 115c-29 -22 -65 -36 -104 -36c-94 0 -171 77 -171 171s77 170 171 170s170 -76 170 -170c0 -39 -13 -76 -35 -105zM171 107c71 0 128 57 128 128s-57 128 -128 128s-128 -57 -128 -128s57 -128 128 -128zM107 213
c-12 0 -22 10 -22 22s10 21 22 21h128c12 0 21 -9 21 -21s-9 -22 -21 -22h-128z" />
    <glyph glyph-name="pinterest" unicode="&#xf1db;" 
d="M213 405c-118 0 -213 -95 -213 -213c0 -90 57 -168 136 -199c-2 17 -4 44 0 62c4 17 25 106 25 106s-6 12 -6 31c0 30 18 52 39 52c18 0 27 -14 27 -30c0 -18 -12 -46 -18 -71c-5 -21 10 -39 31 -39c38 0 68 40 68 98c0 51 -38 87 -90 87c-61 0 -96 -46 -96 -93
c0 -18 7 -37 16 -48c2 -2 2 -4 1 -6c-2 -7 -4 -22 -5 -25c-1 -4 -4 -5 -8 -3c-27 12 -43 52 -43 83c0 67 49 129 141 129c74 0 132 -53 132 -123c0 -74 -47 -133 -111 -133c-22 0 -42 12 -49 25c0 0 -10 -41 -13 -51c-5 -19 -18 -42 -27 -56c20 -6 41 -9 63 -9
c118 0 214 95 214 213s-96 213 -214 213z" />
    <glyph glyph-name="cloud" unicode="&#xf115;" 
d="M229 241l-23 -33l-35 21c-7 4 -14 6 -22 6c-24 0 -42 -19 -42 -43v-43h-43c-12 0 -21 -9 -21 -21s9 -21 21 -21h235c47 0 85 38 85 85s-38 85 -85 85c-28 0 -54 -13 -70 -36zM299 320c71 0 128 -57 128 -128s-57 -128 -128 -128h-235c-35 0 -64 29 -64 64s29 64 64 64
c0 47 38 85 85 85c16 0 32 -4 45 -12c23 33 61 55 105 55z" />
    <glyph glyph-name="git" unicode="&#xf1d5;" 
d="M419 211l-187 186c-11 11 -28 11 -39 0l-38 -38l49 -49c11 4 24 1 33 -8s12 -23 8 -34l47 -47c11 4 25 1 34 -8c13 -13 13 -33 0 -46s-33 -13 -46 0c-10 10 -12 23 -7 35l-44 44v-116c3 -2 5 -3 8 -6c13 -13 13 -33 0 -46s-33 -13 -46 0s-13 33 0 46c3 3 7 5 11 7v117
c-4 2 -8 4 -11 7c-10 10 -12 24 -7 36l-48 49l-128 -128c-11 -11 -11 -28 0 -39l186 -186c11 -11 28 -11 39 0l186 185c11 11 11 28 0 39z" />
    <glyph glyph-name="eye" unicode="&#xf127;" 
d="M0 192c20 97 108 171 213 171s194 -74 214 -171c-20 -97 -109 -171 -214 -171s-193 74 -213 171zM213 85c59 0 107 48 107 107s-48 107 -107 107s-106 -48 -106 -107s47 -107 106 -107zM213 128c-35 0 -64 29 -64 64s29 64 64 64s64 -29 64 -64s-29 -64 -64 -64z" />
    <glyph glyph-name="usb" unicode="&#xf190;" horiz-adv-x="213" 
d="M43 363v-86h128v86h-128zM128 235v-86h43v86h-43zM43 405h128c24 0 42 -18 42 -42v-342c0 -24 -18 -42 -42 -42h-128c-24 0 -43 18 -43 42v342c0 24 19 42 43 42z" />
    <glyph glyph-name="bookmark" unicode="&#xf170;" horiz-adv-x="341" 
d="M299 363h-256v-315l128 64l128 -64v315zM43 405h256c24 0 42 -18 42 -42v-384l-170 85l-171 -85v384c0 24 19 42 43 42zM213 320h43v-128h-43v128z" />
    <glyph glyph-name="angry" unicode="&#xf1b6;" 
d="M213 -21c-118 0 -213 95 -213 213s95 213 213 213s214 -95 214 -213s-96 -213 -214 -213zM213 21c94 0 171 77 171 171s-77 171 -171 171s-170 -77 -170 -171s76 -171 170 -171zM299 85h-29s-9 57 -57 57s-57 -57 -57 -57h-28c0 47 38 86 85 86s86 -39 86 -86zM181 256
c5 -6 9 -14 9 -22c0 -18 -14 -32 -32 -32s-32 14 -32 32c0 15 10 27 23 31l-35 13c-6 2 -9 8 -7 14s8 8 14 6l60 -22c6 -2 9 -8 7 -14c-1 -3 -4 -5 -7 -6zM243 256c-3 1 -5 3 -6 6c-2 6 1 12 7 14l60 22c6 2 11 0 13 -6s0 -12 -6 -14l-35 -13c13 -4 23 -16 23 -31
c0 -18 -14 -32 -32 -32s-32 14 -32 32c0 8 3 16 8 22z" />
    <glyph glyph-name="tired" unicode="&#xf1be;" 
d="M213 21c94 0 171 77 171 171s-77 171 -171 171s-170 -77 -170 -171s76 -171 170 -171zM213 -21c-118 0 -213 95 -213 213s95 213 213 213s214 -95 214 -213s-96 -213 -214 -213zM132 235l-25 25l17 17l25 -25l26 25l17 -17l-26 -25l26 -26l-17 -17l-26 26l-25 -26l-17 17
zM260 235l-25 25l17 17l25 -25l26 25l17 -17l-26 -25l26 -26l-17 -17l-26 26l-25 -26l-17 17zM213 85c-24 0 -42 19 -42 43s18 43 42 43s43 -19 43 -43s-19 -43 -43 -43z" />
    <glyph glyph-name="question" unicode="&#xf14a;" 
d="M213 -21c-118 0 -213 95 -213 213s95 213 213 213s214 -95 214 -213s-96 -213 -214 -213zM213 21c94 0 171 77 171 171s-77 171 -171 171s-170 -77 -170 -171s76 -171 170 -171zM192 107h43v-43h-43v43zM192 149c0 35 64 67 64 86c0 23 -20 42 -43 42s-42 -19 -42 -42
h-43c0 47 39 85 86 85s85 -38 85 -85c0 -43 -64 -65 -64 -86h-43z" />
    <glyph glyph-name="align-right" unicode="&#xf197;" horiz-adv-x="299" 
d="M299 0c0 -12 -10 -21 -22 -21s-21 9 -21 21v384c0 12 9 21 21 21s22 -9 22 -21v-384zM171 341c24 0 42 -18 42 -42s-18 -43 -42 -43h-128c-24 0 -43 19 -43 43s19 42 43 42h128zM171 192c24 0 42 -19 42 -43s-18 -42 -42 -42h-86c-24 0 -42 18 -42 42s18 43 42 43h86z
" />
    <glyph glyph-name="quote-right" unicode="&#xf14c;" horiz-adv-x="384" 
d="M299 213c-47 0 -86 39 -86 86s39 85 86 85s85 -38 85 -85c0 -31 -28 -131 -85 -299h-43c28 142 43 213 43 213zM85 213c-47 0 -85 39 -85 86s38 85 85 85s86 -38 86 -85c0 -31 -29 -131 -86 -299h-42z" />
    <glyph glyph-name="list-order" unicode="&#xf17d;" horiz-adv-x="363" 
d="M128 363h213c12 0 22 -10 22 -22s-10 -21 -22 -21h-213c-12 0 -21 9 -21 21s9 22 21 22zM128 213h213c12 0 22 -9 22 -21s-10 -21 -22 -21h-213c-12 0 -21 9 -21 21s9 21 21 21zM128 64h213c12 0 22 -9 22 -21s-10 -22 -22 -22h-213c-12 0 -21 10 -21 22s9 21 21 21z
M11 363c-6 0 -11 4 -11 10s5 11 11 11h21c6 0 11 -5 11 -11v-64c0 -6 -5 -10 -11 -10s-11 4 -11 10v53zM11 235h42c6 0 11 -5 11 -11v-11l-36 -42h25c6 0 11 -5 11 -11s-5 -11 -11 -11h-42c-6 0 -11 5 -11 11v11l36 42h-25c-6 0 -11 5 -11 11s5 11 11 11zM53 0h-42
c-6 0 -11 5 -11 11s5 10 11 10h32v11h-32c-6 0 -11 5 -11 11s5 10 11 10h32v11h-32c-6 0 -11 5 -11 11s5 10 11 10h42c6 0 11 -4 11 -10v-64c0 -6 -5 -11 -11 -11z" />
    <glyph glyph-name="beer" unicode="&#xf107;" horiz-adv-x="384" 
d="M299 107v-64c0 -23 -20 -43 -43 -43h-213c-23 0 -43 20 -43 43v298c0 24 19 43 43 43h213c24 0 43 -19 43 -43v-42h42c24 0 43 -19 43 -43v-107c0 -24 -19 -42 -43 -42h-42zM43 341v-64h213v64h-213zM43 235v-192h213v192h-213zM128 107c0 -12 -9 -22 -21 -22
s-22 10 -22 22v64c0 12 10 21 22 21s21 -9 21 -21v-64zM213 107c0 -12 -9 -22 -21 -22s-21 10 -21 22v64c0 12 9 21 21 21s21 -9 21 -21v-64zM299 256v-107h42v107h-42z" />
    <glyph glyph-name="camera" unicode="&#xf110;" horiz-adv-x="384" 
d="M43 0c-24 0 -43 19 -43 43v298c0 24 19 43 43 43h298c24 0 43 -19 43 -43v-298c0 -24 -19 -43 -43 -43h-298zM299 341v-42h42v42h-42zM192 85c59 0 107 48 107 107s-48 107 -107 107s-107 -48 -107 -107s48 -107 107 -107zM192 128c-35 0 -64 29 -64 64s29 64 64 64
s64 -29 64 -64s-29 -64 -64 -64z" />
    <glyph glyph-name="music" unicode="&#xf175;" horiz-adv-x="341" 
d="M341 363v-278c0 -35 -29 -64 -64 -64s-64 29 -64 64s29 64 64 64c7 0 15 -1 22 -3v174h-171v-277c0 -35 -29 -64 -64 -64s-64 29 -64 64s29 64 64 64c7 0 14 -2 21 -4v260c0 24 19 42 43 42h171c24 0 42 -18 42 -42z" />
    <glyph glyph-name="eraser" unicode="&#xf1c6;" horiz-adv-x="256" 
d="M256 363v-342c0 -24 -19 -42 -43 -42h-170c-24 0 -43 18 -43 42v342c0 24 19 42 43 42h170c24 0 43 -18 43 -42zM43 363v-86h170v86h-170z" />
    <glyph glyph-name="codepen" unicode="&#xf1d3;" 
d="M427 127v-2l-1 -1v-2v-1l-1 -1v-1l-1 -1v-1l-1 -1l-1 -1l-1 -1v-1h-1l-1 -1v0l-195 -130c-3 -2 -7 -3 -11 -3s-7 1 -10 3l-195 130v0l-1 1h-1l-1 1l-1 1v1l-1 1l-1 1v1l-1 1v1v1c0 1 -1 1 -1 2v1v2v130v2v1c0 1 1 1 1 2v1v1l1 1v1l1 1l1 1v1l1 1l1 1h1l1 1v0l195 130
c6 4 15 4 21 0l195 -130v0l1 -1h1v-1l1 -1l1 -1l1 -1v-1l1 -1v-1l1 -1v-1v-2l1 -1v-2v-130zM37 223v-62l46 31zM195 267v86l-144 -96l65 -43zM375 257l-143 96v-86l79 -53zM51 127l144 -96v86l-79 53zM232 117v-86l143 96l-64 43zM213 235l-65 -43l65 -43l65 43zM390 161v62
l-46 -31z" />
    <glyph glyph-name="forward" unicode="&#xf186;" horiz-adv-x="341" 
d="M171 192v93c0 2 0 5 1 7c3 7 11 9 17 5l146 -93c2 -1 4 -3 5 -5c3 -7 1 -15 -5 -19l-146 -93c-2 -1 -4 -2 -6 -2c-7 0 -12 6 -12 14v93c0 -5 -3 -9 -7 -12l-146 -93c-2 -1 -4 -2 -6 -2c-7 0 -12 6 -12 14v186c0 2 1 5 2 7c3 7 10 9 16 5l146 -93c2 -1 4 -3 5 -5
s2 -5 2 -7z" />
    <glyph glyph-name="link-external" unicode="&#xf137;" horiz-adv-x="341" 
d="M43 277h106v-42h-106v-171h170v107h43v-107c0 -24 -19 -43 -43 -43h-170c-24 0 -43 19 -43 43v171c0 24 19 42 43 42zM269 320h-98v43h170v-171h-42v97l-114 -114l-30 31z" />
    <glyph glyph-name="feather" unicode="&#xf174;" horiz-adv-x="341" 
d="M43 67v-3v-64c0 -12 -10 -21 -22 -21s-21 9 -21 21v64c0 189 152 341 341 341c0 -174 -130 -317 -298 -338zM46 110c128 20 229 121 249 249c-128 -20 -229 -121 -249 -249z" />
    <glyph glyph-name="megaphone" unicode="&#xf13e;" 
d="M43 277l1 -45l329 87c4 1 7 1 11 1c24 0 43 -19 43 -43v-170c0 -4 -1 -7 -2 -11c-6 -23 -29 -37 -52 -31l-330 87v-45c0 -12 -10 -22 -22 -22s-21 10 -21 22v170c0 12 9 22 21 22s22 -10 22 -22zM85 199v-14l299 -78v170z" />
    <glyph glyph-name="twitter" unicode="&#xf1dd;" 
d="M134 16c161 0 249 133 249 249v11c17 12 32 28 44 46c-16 -7 -33 -12 -51 -14c18 11 32 28 39 48c-17 -10 -36 -17 -56 -21c-16 17 -39 28 -64 28c-48 0 -87 -40 -87 -88c0 -7 1 -14 2 -20c-73 4 -137 39 -180 92c-8 -13 -12 -28 -12 -44c0 -30 16 -57 39 -73
c-14 1 -28 5 -40 11v-2c0 -42 30 -77 70 -85c-7 -2 -15 -4 -23 -4c-6 0 -11 1 -16 2c11 -35 44 -60 82 -61c-30 -24 -68 -37 -109 -37c-7 0 -14 0 -21 1c39 -25 85 -39 134 -39z" />
    <glyph glyph-name="shopping-bag" unicode="&#xf1ec;" horiz-adv-x="384" 
d="M107 277v64c0 24 18 43 42 43h86c24 0 42 -19 42 -43v-64h64c24 0 43 -18 43 -42v-192c0 -24 -19 -43 -43 -43h-298c-24 0 -43 19 -43 43v192c0 24 19 42 43 42h64zM43 235v-192h298v192h-64v-64h-42v64h-86v-64h-42v64h-64zM149 277h86v64h-86v-64z" />
    <glyph glyph-name="file-zip" unicode="&#xf1b5;" horiz-adv-x="341" 
d="M43 405h213l85 -85v-299c0 -24 -18 -42 -42 -42h-256c-24 0 -43 18 -43 42v342c0 24 19 42 43 42zM238 363h-195v-342h256v281h-61v61zM85 363h43v-43h-43v43zM128 320h43v-43h-43v43zM85 277h43v-42h-43v42zM128 235h43v-43h-43v43zM107 149l21 22l21 -22v-85h-42v85z
" />
    <glyph glyph-name="artboard" unicode="&#xf104;" horiz-adv-x="384" 
d="M64 107v170h-43c-12 0 -21 10 -21 22s9 21 21 21h43v43c0 12 9 21 21 21s22 -9 22 -21v-43h170v43c0 12 10 21 22 21s21 -9 21 -21v-43h43c12 0 21 -9 21 -21s-9 -22 -21 -22h-43v-170h43c12 0 21 -10 21 -22s-9 -21 -21 -21h-43v-43c0 -12 -9 -21 -21 -21s-22 9 -22 21
v43h-170v-43c0 -12 -10 -21 -22 -21s-21 9 -21 21v43h-43c-12 0 -21 9 -21 21s9 22 21 22h43zM107 107h170v170h-170v-170z" />
    <glyph glyph-name="diamond" unicode="&#xf11e;" horiz-adv-x="384" 
d="M192 67l141 169l-52 105h-178l-52 -105zM77 384h230l77 -154l-192 -230l-192 230z" />
    <glyph glyph-name="gear" unicode="&#xf1a5;" 
d="M192 23c-31 4 -59 16 -83 34l-31 -31l-31 30l32 31c-18 24 -31 53 -35 84h-44v42h44c4 31 17 60 35 84l-32 31l31 30l31 -31c24 18 52 30 83 34v44h43v-44c31 -4 59 -16 83 -34l31 31l30 -30l-31 -31c18 -24 31 -53 35 -84h44v-42h-44c-4 -31 -17 -60 -35 -84l31 -31
l-30 -30l-31 31c-24 -18 -52 -30 -83 -34v-44h-43v44zM213 85c59 0 107 48 107 107s-48 107 -107 107s-106 -48 -106 -107s47 -107 106 -107z" />
    <glyph glyph-name="smile-heart" unicode="&#xf1f6;" 
d="M171 -21c-94 0 -171 76 -171 170s77 171 171 171s170 -77 170 -171s-76 -170 -170 -170zM171 21c71 0 128 57 128 128s-57 128 -128 128s-128 -57 -128 -128s57 -128 128 -128zM235 128c0 -35 -29 -64 -64 -64s-64 29 -64 64h128zM128 171c-12 0 -21 9 -21 21s9 21 21 21
s21 -9 21 -21s-9 -21 -21 -21zM213 171c-12 0 -21 9 -21 21s9 21 21 21s22 -9 22 -21s-10 -21 -22 -21zM355 277c-18 4 -72 34 -72 88c0 22 18 40 40 40c13 0 25 -6 32 -16c7 10 19 16 32 16c22 0 40 -18 40 -40c0 -54 -54 -84 -72 -88z" />
    <glyph glyph-name="bus" unicode="&#xf1fe;" horiz-adv-x="341" 
d="M256 43h-171c0 -24 -18 -43 -42 -43s-43 19 -43 43v298c0 24 19 43 43 43h256c24 0 42 -19 42 -43v-298c0 -24 -18 -43 -42 -43s-43 19 -43 43zM277 128c12 0 22 9 22 21s-10 22 -22 22s-21 -10 -21 -22s9 -21 21 -21zM64 128c12 0 21 9 21 21s-9 22 -21 22
s-21 -10 -21 -22s9 -21 21 -21zM43 341v-128h256v128h-256z" />
    <glyph glyph-name="sunny-o" unicode="&#xf1f0;" 
d="M213 64c-71 0 -128 57 -128 128s57 128 128 128s128 -57 128 -128s-57 -128 -128 -128zM213 107c47 0 86 38 86 85s-39 85 -86 85s-85 -38 -85 -85s38 -85 85 -85zM192 405h43v-64h-43v64zM0 213h64v-42h-64v42zM363 213h64v-42h-64v42zM192 43h43v-64h-43v64zM355 363
l30 -31l-45 -45l-31 30zM309 76l31 31l45 -46l-30 -30zM88 107l30 -31l-45 -45l-30 30zM43 332l30 31l45 -46l-30 -30z" />
    <glyph glyph-name="heart-o" unicode="&#xf167;" horiz-adv-x="384" 
d="M192 21c-47 10 -192 91 -192 235c0 59 48 107 107 107c35 0 66 -17 85 -43c19 26 50 43 85 43c59 0 107 -48 107 -107c0 -144 -145 -225 -192 -235zM192 64c67 20 149 103 149 192c0 35 -29 64 -64 64c-28 0 -56 -17 -85 -53c-29 36 -57 53 -85 53c-35 0 -64 -29 -64 -64
c0 -89 82 -172 149 -192z" />
    <glyph glyph-name="fast-forward" unicode="&#xf185;" horiz-adv-x="384" 
d="M341 192c0 -5 -2 -9 -6 -12l-146 -93c-2 -1 -4 -2 -6 -2c-7 0 -12 6 -12 14v93c0 -5 -3 -9 -7 -12l-146 -93c-2 -1 -4 -2 -6 -2c-7 0 -12 6 -12 14v186c0 2 1 5 2 7c3 7 10 9 16 5l146 -93c2 -1 4 -3 5 -5s2 -5 2 -7v93c0 2 0 5 1 7c3 7 11 9 17 5l146 -93
c2 -1 4 -3 5 -5s1 -5 1 -7v85c0 12 10 22 22 22s21 -10 21 -22v-170c0 -12 -10 -22 -21 -22s-22 10 -22 22v85z" />
    <glyph glyph-name="phone" unicode="&#xf145;" horiz-adv-x="384" 
d="M22 256l-1 1c-12 33 -21 79 -21 106c0 12 9 21 21 21h64c24 0 43 -19 43 -43v-42c0 -24 -19 -43 -43 -43h-18c35 -86 103 -154 189 -189v18c0 24 19 43 43 43h42c24 0 43 -19 43 -43v-64c0 -10 -11 -21 -21 -21c-37 0 -74 9 -107 21c-109 39 -195 126 -234 235z" />
    <glyph glyph-name="flag" unicode="&#xf129;" horiz-adv-x="341" 
d="M43 192v-192c0 -12 -10 -21 -22 -21s-21 9 -21 21v363c0 23 20 42 43 42h128c23 0 42 -19 42 -42h86c24 0 42 -19 42 -43v-128c0 -24 -18 -43 -42 -43h-107c-23 0 -43 20 -43 43h-106zM43 363v-128h149v-43h107v128h-128v43h-128z" />
    <glyph glyph-name="train" unicode="&#xf1f8;" horiz-adv-x="341" 
d="M235 44c-21 -1 -43 -1 -65 -1s-43 0 -63 1v-44h-64v21l15 31c-35 10 -58 31 -58 76v171c0 85 85 85 171 85s170 0 170 -85v-171c0 -45 -23 -66 -58 -76l16 -31v-21h-64v44zM64 107c12 0 21 9 21 21s-9 21 -21 21s-21 -9 -21 -21s9 -21 21 -21zM277 107c12 0 22 9 22 21
s-10 21 -22 21s-21 -9 -21 -21s9 -21 21 -21zM43 320v-128h256v128h-256z" />
    <glyph glyph-name="link" unicode="&#xf136;" 
d="M211 213h5c9 37 43 64 83 64h42c47 0 86 -38 86 -85s-39 -85 -86 -85h-42c-40 0 -74 27 -83 64h-5c-9 -37 -43 -64 -83 -64h-43c-47 0 -85 38 -85 85s38 85 85 85h43c40 0 74 -27 83 -64zM165 213c-7 13 -21 22 -37 22h-43c-24 0 -42 -19 -42 -43s18 -43 42 -43h43
c16 0 30 9 37 22c-9 2 -16 11 -16 21s7 19 16 21zM256 171c7 -13 21 -22 37 -22h43c24 0 43 19 43 43s-19 43 -43 43h-43c-16 0 -30 -9 -37 -22c9 -2 16 -11 16 -21s-7 -19 -16 -21z" />
    <glyph glyph-name="crop" unicode="&#xf1c2;" horiz-adv-x="384" 
d="M277 21v43h-170c-23 0 -43 20 -43 43v170h-43c-12 0 -21 10 -21 22s9 21 21 21h43v43c0 12 9 21 21 21s22 -9 22 -21v-43h192l42 43l22 -22l-43 -42v-192h43c12 0 21 -10 21 -22s-9 -21 -21 -21h-43v-43c0 -12 -9 -21 -21 -21s-22 9 -22 21zM277 107v149l-149 -149h149z
M107 277v-149l149 149h-149z" />
    <glyph glyph-name="smile" unicode="&#xf1bc;" 
d="M213 -21c-118 0 -213 95 -213 213s95 213 213 213s214 -95 214 -213s-96 -213 -214 -213zM299 171c0 -47 -39 -86 -86 -86s-85 39 -85 86h171zM213 21c94 0 171 77 171 171s-77 171 -171 171s-170 -77 -170 -171s76 -171 170 -171zM160 213c-18 0 -32 14 -32 32
s14 32 32 32s32 -14 32 -32s-14 -32 -32 -32zM267 213c-18 0 -32 14 -32 32s14 32 32 32s32 -14 32 -32s-14 -32 -32 -32z" />
    <glyph glyph-name="prototype" unicode="&#xf149;" horiz-adv-x="384" 
d="M128 192h-48c-7 -13 -21 -21 -37 -21c-24 0 -43 18 -43 42s19 43 43 43c16 0 30 -8 37 -21h48v106c0 24 19 43 43 43h170c24 0 43 -19 43 -43v-298c0 -24 -19 -43 -43 -43h-170c-24 0 -43 19 -43 43v149zM171 192v-149h170v298h-170v-106h48c7 13 21 21 37 21
c24 0 43 -19 43 -43s-19 -42 -43 -42c-16 0 -30 8 -37 21h-48z" />
    <glyph glyph-name="elipsis-h" unicode="&#xf125;" horiz-adv-x="341" 
d="M299 149c-24 0 -43 19 -43 43s19 43 43 43s42 -19 42 -43s-18 -43 -42 -43zM43 149c-24 0 -43 19 -43 43s19 43 43 43s42 -19 42 -43s-18 -43 -42 -43zM171 149c-24 0 -43 19 -43 43s19 43 43 43s42 -19 42 -43s-18 -43 -42 -43z" />
    <glyph glyph-name="info" unicode="&#xf130;" 
d="M213 21c94 0 171 77 171 171s-77 171 -171 171s-170 -77 -170 -171s76 -171 170 -171zM213 -21c-118 0 -213 95 -213 213s95 213 213 213s214 -95 214 -213s-96 -213 -214 -213zM192 213h43v-128h-43v128zM192 299h43v-43h-43v43z" />
    <glyph glyph-name="line-chart" unicode="&#xf135;" 
d="M82 146c2 -5 3 -12 3 -18c0 -24 -18 -43 -42 -43s-43 19 -43 43s19 43 43 43c6 0 12 -2 17 -4l50 50c-2 5 -3 12 -3 18c0 24 18 42 42 42s43 -18 43 -42c0 -6 -2 -13 -4 -18l50 -50c5 2 12 4 18 4s13 -2 18 -4l71 71c-2 5 -4 12 -4 18c0 24 19 43 43 43s43 -19 43 -43
s-19 -43 -43 -43c-6 0 -13 2 -18 4l-71 -71c2 -5 4 -12 4 -18c0 -24 -19 -43 -43 -43s-43 19 -43 43c0 6 2 13 4 18l-50 50c-5 -2 -12 -4 -18 -4s-12 2 -17 4z" />
    <glyph glyph-name="delete-link" unicode="&#xf19e;" 
d="M192 256h-85c-35 0 -64 -29 -64 -64s29 -64 64 -64h85v-43h-85c-59 0 -107 48 -107 107s48 107 107 107h85v-43zM235 128h85c35 0 64 29 64 64s-29 64 -64 64h-85v43h85c59 0 107 -48 107 -107s-48 -107 -107 -107h-85v43zM235 213h42c12 0 22 -9 22 -21s-10 -21 -22 -21
h-42v42zM149 213h43v-42h-43c-12 0 -21 9 -21 21s9 21 21 21z" />
    <glyph glyph-name="rage" unicode="&#xf1bb;" 
d="M213 21c94 0 171 77 171 171s-77 171 -171 171s-170 -77 -170 -171s76 -171 170 -171zM213 -21c-118 0 -213 95 -213 213s95 213 213 213s214 -95 214 -213s-96 -213 -214 -213zM299 85h-29s-9 57 -57 57s-57 -57 -57 -57h-28c0 47 38 86 85 86s86 -39 86 -86zM267 213
c-18 0 -32 14 -32 32s46 32 64 32v-32c0 -18 -14 -32 -32 -32zM160 213c-18 0 -32 14 -32 32v32c18 0 64 -14 64 -32s-14 -32 -32 -32z" />
    <glyph glyph-name="car" unicode="&#xf1ff;" horiz-adv-x="384" 
d="M0 64v107c0 24 19 42 43 42v64c0 47 38 86 85 86h128c47 0 85 -39 85 -86v-64c24 0 43 -18 43 -42v-107c0 -24 -19 -43 -43 -43s-42 19 -42 43h-214c0 -24 -18 -43 -42 -43s-43 19 -43 43zM128 320c-24 0 -43 -19 -43 -43v-64h214v64c0 24 -19 43 -43 43h-128zM64 128
c12 0 21 9 21 21s-9 22 -21 22s-21 -10 -21 -22s9 -21 21 -21zM320 128c12 0 21 9 21 21s-9 22 -21 22s-21 -10 -21 -22s9 -21 21 -21z" />
    <glyph glyph-name="trash" unicode="&#xf157;" horiz-adv-x="384" 
d="M21 341h64v22c0 24 19 42 43 42h128c24 0 43 -18 43 -42v-22h64c12 0 21 -9 21 -21s-9 -21 -21 -21h-22v-278c0 -24 -18 -42 -42 -42h-214c-24 0 -42 18 -42 42v278h-22c-12 0 -21 9 -21 21s9 21 21 21zM85 299v-278h214v278h-214zM128 341h128v22h-128v-22zM128 256h43
v-192h-43v192zM213 256h43v-192h-43v192z" />
    <glyph glyph-name="donut" unicode="&#xf1f9;" 
d="M213 107c47 0 86 38 86 85s-39 85 -86 85s-85 -38 -85 -85s38 -85 85 -85zM213 -21c-118 0 -213 95 -213 213s95 213 213 213s214 -95 214 -213s-96 -213 -214 -213zM213 363v-43h43v43h-43zM341 256v-43h43v43h-43zM64 149c12 0 21 10 21 22s-9 21 -21 21
s-21 -9 -21 -21s9 -22 21 -22zM149 299c12 0 22 9 22 21s-10 21 -22 21s-21 -9 -21 -21s9 -21 21 -21zM320 277c12 0 21 10 21 22s-9 21 -21 21s-21 -9 -21 -21s9 -22 21 -22zM363 128c12 0 21 9 21 21s-9 22 -21 22s-22 -10 -22 -22s10 -21 22 -21zM277 85v-42h43v42h-43z
M192 21c12 0 21 10 21 22s-9 21 -21 21s-21 -9 -21 -21s9 -22 21 -22zM85 107v-43h43v43h-43zM64 277v-42h43v42h-43z" />
    <glyph glyph-name="tag" unicode="&#xf153;" horiz-adv-x="384" 
d="M42 130l88 -88l212 212v88h-88zM224 372c8 8 19 12 30 12h88c23 0 42 -19 42 -42v-88c0 -11 -4 -22 -12 -30l-212 -212c-17 -17 -42 -17 -59 0l-89 89c-17 17 -17 42 0 59zM277 256c-12 0 -21 9 -21 21s9 22 21 22s22 -10 22 -22s-10 -21 -22 -21z" />
    <glyph glyph-name="paper-plane" unicode="&#xf178;" horiz-adv-x="384" 
d="M230 192l-230 23v146c0 13 10 23 23 23c4 0 7 0 10 -2l338 -170c11 -6 17 -19 11 -30c-2 -4 -7 -8 -11 -10l-338 -170c-11 -6 -25 0 -31 11c-2 3 -2 6 -2 10v146z" />
    <glyph glyph-name="audio-player" unicode="&#xf199;" horiz-adv-x="256" 
d="M256 21c0 -24 -19 -42 -43 -42h-170c-24 0 -43 18 -43 42v342c0 24 19 42 43 42h170c24 0 43 -18 43 -42v-342zM128 21c47 0 85 39 85 86s-38 85 -85 85s-85 -38 -85 -85s38 -86 85 -86zM43 363v-128h170v128h-170zM128 64c-24 0 -43 19 -43 43s19 42 43 42
s43 -18 43 -42s-19 -43 -43 -43z" />
    <glyph glyph-name="minus" unicode="&#xf140;" horiz-adv-x="384" 
d="M21 213h342c12 0 21 -9 21 -21s-9 -21 -21 -21h-342c-12 0 -21 9 -21 21s9 21 21 21v0z" />
    <glyph glyph-name="loop" unicode="&#xf192;" horiz-adv-x="384" 
d="M83 125c22 -37 63 -61 109 -61c56 0 103 35 121 85h44c-19 -74 -85 -128 -165 -128c-58 0 -109 30 -140 74l-52 -52v128h128zM301 259c-22 37 -63 61 -109 61c-56 0 -103 -35 -121 -85h-44c19 74 85 128 165 128c58 0 109 -30 140 -74l52 52v-128h-128z" />
    <glyph glyph-name="browser" unicode="&#xf10b;" 
d="M43 235v-171h341v171h-341zM43 320v-43h42v43h-42zM128 320v-43h256v43h-256zM43 363h341c24 0 43 -19 43 -43v-256c0 -24 -19 -43 -43 -43h-341c-24 0 -43 19 -43 43v256c0 24 19 43 43 43z" />
    <glyph glyph-name="fork" unicode="&#xf12b;" horiz-adv-x="299" 
d="M85 281v-89h64c35 0 64 29 64 64v25c-25 9 -42 32 -42 60c0 35 29 64 64 64s64 -29 64 -64c0 -28 -18 -51 -43 -60v-25c0 -59 -48 -107 -107 -107h-64v-46c25 -9 43 -32 43 -60c0 -35 -29 -64 -64 -64s-64 29 -64 64c0 28 18 51 43 60v178c-25 9 -43 32 -43 60
c0 35 29 64 64 64s64 -29 64 -64c0 -28 -18 -51 -43 -60zM64 21c12 0 21 10 21 22s-9 21 -21 21s-21 -9 -21 -21s9 -22 21 -22zM235 320c12 0 21 9 21 21s-9 22 -21 22s-22 -10 -22 -22s10 -21 22 -21zM64 320c12 0 21 9 21 21s-9 22 -21 22s-21 -10 -21 -22s9 -21 21 -21z
" />
    <glyph glyph-name="layer" unicode="&#xf18c;" horiz-adv-x="384" 
d="M64 277l128 -64l128 64l-128 64zM202 382l171 -87c10 -5 14 -17 8 -27c-2 -3 -4 -6 -8 -8l-171 -87c-6 -3 -14 -3 -20 0l-171 87c-10 5 -14 17 -8 27c2 3 4 6 8 8l171 87c6 3 14 3 20 0zM202 88c-6 -3 -14 -3 -20 0l-171 88c-10 5 -14 18 -8 28c2 3 4 5 8 7
c5 3 11 3 16 0l155 -80c6 -3 14 -3 20 0l155 80c5 3 11 3 16 0c10 -5 14 -17 8 -27c-2 -3 -4 -6 -8 -8zM202 3c-6 -3 -14 -3 -20 0l-171 88c-10 5 -14 17 -8 27c2 3 4 6 8 8c5 3 11 3 16 0l155 -80c6 -3 14 -3 20 0l155 80c5 3 11 3 16 0c10 -5 14 -17 8 -27
c-2 -3 -4 -6 -8 -8z" />
    <glyph glyph-name="arrow-up" unicode="&#xf103;" horiz-adv-x="341" 
d="M0 128l171 171l170 -171l-42 -43l-128 128l-128 -128z" />
    <glyph glyph-name="search-plus" unicode="&#xf16b;" 
d="M306 130l114 -115c8 -8 8 -22 0 -30s-22 -8 -30 0l-115 115c-29 -22 -65 -36 -104 -36c-94 0 -171 77 -171 171s77 170 171 170s170 -76 170 -170c0 -39 -13 -76 -35 -105zM171 107c71 0 128 57 128 128s-57 128 -128 128s-128 -57 -128 -128s57 -128 128 -128zM235 213
h-43v-42c0 -12 -9 -22 -21 -22s-22 10 -22 22v42h-42c-12 0 -22 10 -22 22s10 21 22 21h42v43c0 12 10 21 22 21s21 -9 21 -21v-43h43c12 0 21 -9 21 -21s-9 -22 -21 -22z" />
    <glyph glyph-name="pencil" unicode="&#xf144;" horiz-adv-x="384" 
d="M0 64l256 256l64 -64l-256 -256h-64v64zM277 341l43 43l64 -64l-43 -43z" />
    <glyph glyph-name="lock" unicode="&#xf139;" horiz-adv-x="341" 
d="M64 235v64c0 59 48 106 107 106s106 -47 106 -106v-64h22c24 0 42 -19 42 -43v-171c0 -24 -18 -42 -42 -42h-256c-24 0 -43 18 -43 42v171c0 24 19 43 43 43h21zM43 192v-171h256v171h-256zM107 235h128v64c0 35 -29 64 -64 64s-64 -29 -64 -64v-64zM213 149h43v-85h-43
v85z" />
    <glyph glyph-name="squid" unicode="&#xf1fd;" horiz-adv-x="341" 
d="M85 235l-42 42l128 128l128 -128l-43 -42v-150c0 -12 9 -21 21 -21s22 9 22 21s9 22 21 22s21 -10 21 -22c0 -35 -29 -64 -64 -64c-16 0 -31 7 -42 17v-38c0 -12 -10 -21 -22 -21s-21 9 -21 21v43h-43v-43c0 -12 -9 -21 -21 -21s-21 9 -21 21v38c-11 -10 -27 -17 -43 -17
c-35 0 -64 29 -64 64c0 12 9 22 21 22s22 -10 22 -22s9 -21 21 -21s21 9 21 21v150z" />
    <glyph glyph-name="share" unicode="&#xf14f;" horiz-adv-x="341" 
d="M231 130c12 12 28 19 46 19c35 0 64 -29 64 -64s-29 -64 -64 -64s-64 29 -64 64c0 4 0 8 1 11l-104 52c-12 -12 -28 -20 -46 -20c-35 0 -64 29 -64 64s29 64 64 64c18 0 34 -8 46 -20l104 52c-1 3 -1 7 -1 11c0 35 29 64 64 64s64 -29 64 -64s-29 -64 -64 -64
c-18 0 -34 7 -46 19l-104 -52c1 -3 1 -7 1 -10s0 -7 -1 -10zM277 277c12 0 22 10 22 22s-10 21 -22 21s-21 -9 -21 -21s9 -22 21 -22zM277 64c12 0 22 9 22 21s-10 22 -22 22s-21 -10 -21 -22s9 -21 21 -21zM64 171c12 0 21 9 21 21s-9 21 -21 21s-21 -9 -21 -21
s9 -21 21 -21z" />
    <glyph glyph-name="file-word" unicode="&#xf1a4;" horiz-adv-x="341" 
d="M43 405h213l85 -85v-299c0 -24 -18 -42 -42 -42h-256c-24 0 -43 18 -43 42v342c0 24 19 42 43 42zM235 363h-192v-342h256v278h-64v64zM64 192h43l21 -64l21 64h43l21 -64l22 64h42l-42 -128h-43l-21 64l-22 -64h-42z" />
    <glyph glyph-name="text-align-left" unicode="&#xf1cc;" horiz-adv-x="341" 
d="M320 299h-299c-12 0 -21 9 -21 21s9 21 21 21h299c12 0 21 -9 21 -21s-9 -21 -21 -21zM235 213h-214c-12 0 -21 10 -21 22s9 21 21 21h214c12 0 21 -9 21 -21s-9 -22 -21 -22zM320 128h-299c-12 0 -21 9 -21 21s9 22 21 22h299c12 0 21 -10 21 -22s-9 -21 -21 -21z
M235 43h-214c-12 0 -21 9 -21 21s9 21 21 21h214c12 0 21 -9 21 -21s-9 -21 -21 -21z" />
    <glyph glyph-name="wallet" unicode="&#xf1ee;" 
d="M384 256c23 0 43 -20 43 -43v-42c0 -23 -20 -43 -43 -43v-64c0 -24 -19 -43 -43 -43h-298c-24 0 -43 19 -43 43v256c0 24 19 43 43 43h298c24 0 43 -19 43 -43v-64zM341 256v64h-298v-256h298v64h-42c-23 0 -43 24 -43 43v42c0 24 20 43 43 43h42zM299 171h42v42h-42v-42
z" />
    <glyph glyph-name="download" unicode="&#xf120;" horiz-adv-x="341" 
d="M21 43h299c12 0 21 -10 21 -22s-9 -21 -21 -21h-299c-12 0 -21 9 -21 21s9 22 21 22zM192 167l69 69l30 -30l-120 -121l-121 121l30 30l69 -69v238h43v-238z" />
    <glyph glyph-name="vr" unicode="&#xf205;" 
d="M277 85l-42 43h-43l-43 -43h-42c-24 0 -43 19 -43 43v128c0 24 19 43 43 43h213c24 0 43 -19 43 -43v-128c0 -24 -19 -43 -43 -43h-43zM427 149c0 -12 -10 -21 -22 -21s-21 9 -21 21v86c0 12 9 21 21 21s22 -9 22 -21v-86zM43 149c0 -12 -10 -21 -22 -21s-21 9 -21 21v86
c0 12 9 21 21 21s22 -9 22 -21v-86z" />
    <glyph glyph-name="elipsis-v" unicode="&#xf126;" horiz-adv-x="85" 
d="M43 21c-24 0 -43 19 -43 43s19 43 43 43s42 -19 42 -43s-18 -43 -42 -43zM43 149c-24 0 -43 19 -43 43s19 43 43 43s42 -19 42 -43s-18 -43 -42 -43zM43 277c-24 0 -43 19 -43 43s19 43 43 43s42 -19 42 -43s-18 -43 -42 -43z" />
    <glyph glyph-name="file" unicode="&#xf1b1;" horiz-adv-x="341" 
d="M43 405h213l85 -85v-299c0 -24 -18 -42 -42 -42h-256c-24 0 -43 18 -43 42v342c0 24 19 42 43 42zM238 363h-195v-342h256v281h-61v61z" />
    <glyph glyph-name="home" unicode="&#xf12f;" horiz-adv-x="384" 
d="M192 329l-149 -119v-167h106v85h86v-85h106v157c0 6 -3 12 -8 16zM192 384l168 -134c15 -12 24 -31 24 -50v-157c0 -24 -19 -43 -43 -43h-298c-24 0 -43 19 -43 43v167c0 13 6 25 16 33z" />
    <glyph glyph-name="mouse" unicode="&#xf142;" horiz-adv-x="256" 
d="M128 363c-47 0 -85 -39 -85 -86v-170c0 -47 38 -86 85 -86s85 39 85 86v170c0 47 -38 86 -85 86zM128 405c71 0 128 -57 128 -128v-170c0 -71 -57 -128 -128 -128s-128 57 -128 128v170c0 71 57 128 128 128zM149 235c0 -12 -9 -22 -21 -22s-21 10 -21 22v64
c0 12 9 21 21 21s21 -9 21 -21v-64z" />
    <glyph glyph-name="check" unicode="&#xf111;" horiz-adv-x="341" 
d="M43 235l85 -86l171 171l42 -43l-213 -213l-128 128z" />
    <glyph glyph-name="feed" unicode="&#xf128;" horiz-adv-x="384" 
d="M64 43c12 0 21 9 21 21s-9 21 -21 21s-21 -9 -21 -21s9 -21 21 -21zM64 0c-35 0 -64 29 -64 64s29 64 64 64s64 -29 64 -64s-29 -64 -64 -64zM341 0c-11 183 -158 330 -341 341v43c212 0 384 -172 384 -384h-43zM234 0c-10 124 -110 224 -234 234v43
c153 0 277 -124 277 -277h-43z" />
    <glyph glyph-name="smile-plus" unicode="&#xf1f5;" 
d="M171 -21c-94 0 -171 76 -171 170s77 171 171 171s170 -77 170 -171s-76 -170 -170 -170zM171 21c71 0 128 57 128 128s-57 128 -128 128s-128 -57 -128 -128s57 -128 128 -128zM235 128c0 -35 -29 -64 -64 -64s-64 29 -64 64h128zM128 171c-12 0 -21 9 -21 21s9 21 21 21
s21 -9 21 -21s-9 -21 -21 -21zM213 171c-12 0 -21 9 -21 21s9 21 21 21s22 -9 22 -21s-10 -21 -22 -21zM384 363h21c12 0 22 -10 22 -22s-10 -21 -22 -21h-21v-21c0 -12 -9 -22 -21 -22s-22 10 -22 22v21h-21c-12 0 -21 9 -21 21s9 22 21 22h21v21c0 12 10 21 22 21
s21 -9 21 -21v-21z" />
    <glyph glyph-name="text-align-justify" unicode="&#xf1e5;" horiz-adv-x="341" 
d="M320 299h-299c-12 0 -21 9 -21 21s9 21 21 21h299c12 0 21 -9 21 -21s-9 -21 -21 -21zM320 213h-299c-12 0 -21 10 -21 22s9 21 21 21h299c12 0 21 -9 21 -21s-9 -22 -21 -22zM320 128h-299c-12 0 -21 9 -21 21s9 22 21 22h299c12 0 21 -10 21 -22s-9 -21 -21 -21z
M320 43h-299c-12 0 -21 9 -21 21s9 21 21 21h299c12 0 21 -9 21 -21s-9 -21 -21 -21z" />
    <glyph glyph-name="book" unicode="&#xf109;" 
d="M235 107l149 1v212h-110l-39 -39v-174zM192 281l-39 38l-110 1v-212l149 -1v174zM171 362l42 -42l43 43h128c24 0 43 -19 43 -43v-212c0 -23 -20 -43 -43 -43l-128 -1l-43 -43l-42 43l-129 1c-23 0 -42 20 -42 43v212c0 24 19 43 43 43c0 0 43 0 128 -1z" />
    <glyph glyph-name="speaker" unicode="&#xf1ab;" horiz-adv-x="256" 
d="M256 21c0 -24 -19 -42 -43 -42h-170c-24 0 -43 18 -43 42v342c0 24 19 42 43 42h170c24 0 43 -18 43 -42v-342zM128 192c47 0 85 38 85 85s-38 86 -85 86s-85 -39 -85 -86s38 -85 85 -85zM128 21c24 0 43 19 43 43s-19 43 -43 43s-43 -19 -43 -43s19 -43 43 -43zM128 235
c-24 0 -43 18 -43 42s19 43 43 43s43 -19 43 -43s-19 -42 -43 -42z" />
    <glyph glyph-name="github-alt" unicode="&#xf1d7;" 
d="M392 274v0c22 -23 35 -54 35 -90c0 -137 -90 -168 -214 -168s-213 31 -213 168c0 36 13 67 35 90c-3 9 -15 42 3 88c0 0 28 9 92 -35c27 7 55 9 83 9s57 -2 84 -9c64 43 92 35 92 35c18 -46 6 -79 3 -88zM213 42v0c88 0 160 4 160 89c0 21 -10 40 -27 56
c-29 26 -78 12 -133 12s-103 14 -132 -12c-17 -16 -27 -36 -27 -56c0 -85 71 -89 159 -89zM146 176v0c18 0 32 -22 32 -48s-14 -47 -32 -47s-32 21 -32 47s14 48 32 48zM280 176v0c18 0 32 -22 32 -48s-14 -47 -32 -47s-32 21 -32 47s14 48 32 48z" />
    <glyph glyph-name="text-align-right" unicode="&#xf1cd;" horiz-adv-x="341" 
d="M320 299h-299c-12 0 -21 9 -21 21s9 21 21 21h299c12 0 21 -9 21 -21s-9 -21 -21 -21zM320 213h-213c-12 0 -22 10 -22 22s10 21 22 21h213c12 0 21 -9 21 -21s-9 -22 -21 -22zM320 128h-299c-12 0 -21 9 -21 21s9 22 21 22h299c12 0 21 -10 21 -22s-9 -21 -21 -21z
M320 43h-213c-12 0 -22 9 -22 21s10 21 22 21h213c12 0 21 -9 21 -21s-9 -21 -21 -21z" />
    <glyph glyph-name="document" unicode="&#xf19f;" horiz-adv-x="341" 
d="M235 363h-192v-342h256v278h-64v64zM43 405h213l85 -85v-299c0 -24 -18 -42 -42 -42h-256c-24 0 -43 18 -43 42v342c0 24 19 42 43 42zM85 213h171v-42h-171v42zM85 128h171v-43h-171v43z" />
    <glyph glyph-name="target" unicode="&#xf1f3;" 
d="M383 171c-10 -77 -71 -138 -148 -148v-44h-43v44c-77 10 -138 71 -148 148h-44v42h44c10 77 71 138 148 148v44h43v-44c77 -10 138 -71 148 -148h44v-42h-44zM213 64c71 0 128 57 128 128s-57 128 -128 128s-128 -57 -128 -128s57 -128 128 -128zM213 128
c-35 0 -64 29 -64 64s29 64 64 64s64 -29 64 -64s-29 -64 -64 -64z" />
    <glyph glyph-name="file-audio" unicode="&#xf1b2;" horiz-adv-x="341" 
d="M43 405h213l85 -85v-299c0 -24 -18 -42 -42 -42h-256c-24 0 -43 18 -43 42v342c0 24 19 42 43 42zM238 363h-195v-342h256v281h-61v61zM235 148v65h-86v-117c0 -18 -14 -32 -32 -32s-32 14 -32 32s14 32 32 32c4 0 8 -1 11 -2v109c0 12 9 21 21 21h86c12 0 21 -9 21 -21
v-118c0 -18 -14 -32 -32 -32s-32 14 -32 32s14 32 32 32c4 0 8 0 11 -1z" />
    <glyph glyph-name="pizza" unicode="&#xf147;" 
d="M213 -21c-118 0 -213 95 -213 213s95 213 213 213s214 -95 214 -213s-96 -213 -214 -213zM213 21c94 0 171 77 171 171s-77 171 -171 171s-170 -77 -170 -171s76 -171 170 -171zM107 128h42v-43zM320 128l-43 -43v43h43zM149 299v-43h-42zM277 299l43 -43h-43v43z
M224 256c-18 0 -32 14 -32 32s14 32 32 32s32 -14 32 -32s-14 -32 -32 -32zM117 171c-18 0 -32 14 -32 32s14 32 32 32s32 -14 32 -32s-14 -32 -32 -32zM309 149c-18 0 -32 14 -32 32s14 32 32 32s32 -14 32 -32s-14 -32 -32 -32zM213 171c-12 0 -21 9 -21 21s9 21 21 21
s22 -9 22 -21s-10 -21 -22 -21zM203 64c-18 0 -32 14 -32 32s14 32 32 32s32 -14 32 -32s-14 -32 -32 -32z" />
    <glyph glyph-name="map" unicode="&#xf16d;" horiz-adv-x="384" 
d="M128 85l128 -41v254l-128 43v-256zM0 341l128 43l128 -43l128 43v-341l-128 -43l-128 43l-128 -43v341z" />
    <glyph glyph-name="play" unicode="&#xf188;" horiz-adv-x="256" 
d="M0 322c0 3 0 6 2 9c5 9 16 13 25 8l220 -130c3 -2 5 -5 7 -8c5 -9 2 -21 -7 -26l-220 -130c-3 -2 -6 -2 -9 -2c-10 0 -18 8 -18 19v260z" />
    <glyph glyph-name="star" unicode="&#xf151;" horiz-adv-x="405" 
d="M203 66l-126 -66l24 139l-101 98l140 21l63 126l62 -126l140 -21l-101 -98l24 -139z" />
    <glyph glyph-name="users" unicode="&#xf15c;" 
d="M128 171c-35 0 -64 29 -64 64s29 64 64 64s64 -29 64 -64s-29 -64 -64 -64zM299 171c-35 0 -64 29 -64 64s29 64 64 64s64 -29 64 -64s-29 -64 -64 -64zM128 128c51 0 97 -23 128 -58v-27h-256v27c31 35 77 58 128 58zM299 43v43l-11 12c-8 9 -17 18 -27 26
c12 3 25 4 38 4c51 0 97 -23 128 -58v-27h-128z" />
    <glyph glyph-name="cocktail" unicode="&#xf116;" horiz-adv-x="341" 
d="M192 43h64c12 0 21 -10 21 -22s-9 -21 -21 -21h-171c-12 0 -21 9 -21 21s9 22 21 22h64v144l-132 99c-11 8 -17 21 -17 34v21c0 24 19 43 43 43h256c24 0 42 -19 42 -43v-21c0 -13 -6 -26 -17 -34l-132 -99v-144zM43 341v-21l128 -85l128 85v21h-256z" />
    <glyph glyph-name="watch" unicode="&#xf1af;" horiz-adv-x="256" 
d="M192 303c38 -22 64 -64 64 -111s-26 -89 -64 -111v-60c0 -24 -19 -42 -43 -42h-42c-24 0 -43 18 -43 42v60c-38 22 -64 64 -64 111s26 89 64 111v60c0 24 19 42 43 42h42c24 0 43 -18 43 -42v-60zM128 107c47 0 85 38 85 85s-38 85 -85 85s-85 -38 -85 -85s38 -85 85 -85
zM171 213c12 0 21 -9 21 -21s-9 -21 -21 -21h-22c-23 0 -42 19 -42 42v22c0 12 9 21 21 21s21 -9 21 -21v-22h22z" />
    <glyph glyph-name="compress" unicode="&#xf181;" horiz-adv-x="299" 
d="M277 192h-128v128l43 -43l64 64l43 -42l-64 -64zM21 192h128v-128l-42 43l-64 -64l-43 42l64 64z" />
    <glyph glyph-name="check-verified" unicode="&#xf19c;" 
d="M48 149h-5c-24 0 -43 19 -43 43s19 43 43 43h5c4 16 10 30 18 44l-4 4c-17 17 -17 43 0 60s44 17 61 0l4 -4c14 8 28 14 44 18v6c0 24 18 42 42 42s43 -18 43 -42v-6c16 -4 30 -10 44 -18l4 4c17 17 43 17 60 0s17 -43 0 -60l-4 -4c8 -14 15 -28 19 -44h5
c24 0 43 -19 43 -43s-19 -43 -43 -43h-5c-4 -16 -11 -30 -19 -44l4 -4c17 -17 17 -43 0 -60s-43 -17 -60 0l-4 4c-14 -8 -28 -14 -44 -18v-6c0 -24 -19 -42 -43 -42s-42 18 -42 42v6c-16 4 -30 10 -44 18l-4 -4c-17 -17 -44 -17 -61 0s-17 43 0 60l4 4c-8 14 -14 28 -18 44z
M149 235l-42 -43l85 -85l128 128l-43 42l-85 -85z" />
    <glyph glyph-name="frowing" unicode="&#xf1b9;" 
d="M213 21c94 0 171 77 171 171s-77 171 -171 171s-170 -77 -170 -171s76 -171 170 -171zM213 -21c-118 0 -213 95 -213 213s95 213 213 213s214 -95 214 -213s-96 -213 -214 -213zM299 85h-171c0 47 38 86 85 86s86 -39 86 -86zM267 213c-18 0 -32 14 -32 32s14 32 32 32
s32 -14 32 -32s-14 -32 -32 -32zM160 213c-18 0 -32 14 -32 32s14 32 32 32s32 -14 32 -32s-14 -32 -32 -32z" />
    <glyph glyph-name="kitchen-cooker" unicode="&#xf1a7;" 
d="M48 21h-5c-24 0 -43 19 -43 43v256c0 24 19 43 43 43h341c24 0 43 -19 43 -43v-256c0 -24 -19 -43 -43 -43h-6c-7 -13 -21 -21 -37 -21s-30 8 -37 21h-182c-7 -13 -21 -21 -37 -21s-30 8 -37 21zM43 320v-256h341v256h-341zM85 192h256v-85h-256v85zM85 277h107v-42h-107
v42zM171 171v-22h85v22h-85zM256 235c-12 0 -21 9 -21 21s9 21 21 21s21 -9 21 -21s-9 -21 -21 -21zM320 235c-12 0 -21 9 -21 21s9 21 21 21s21 -9 21 -21s-9 -21 -21 -21z" />
    <glyph glyph-name="medal" unicode="&#xf13d;" horiz-adv-x="299" 
d="M149 -21c-82 0 -149 67 -149 149s67 149 149 149s150 -67 150 -149s-68 -149 -150 -149zM149 21c59 0 107 48 107 107s-48 107 -107 107s-106 -48 -106 -107s47 -107 106 -107zM149 277c-12 0 -21 10 -21 22s9 21 21 21s22 -9 22 -21s-10 -22 -22 -22zM85 405h43v-85
c-23 0 -43 20 -43 43v42zM171 405h42v-42c0 -23 -19 -43 -42 -43v85z" />
    <glyph glyph-name="expand" unicode="&#xf183;" horiz-adv-x="341" 
d="M213 363h128v-128l-42 42l-86 -85l-42 43l85 85zM128 21h-128v128l43 -42l85 85l43 -43l-86 -85z" />
    <glyph glyph-name="building" unicode="&#xf10e;" horiz-adv-x="341" 
d="M43 405h256c24 0 42 -18 42 -42v-384h-341v384c0 24 19 42 43 42zM43 21h85v86h85v-86h86v342h-256v-342zM192 320h64v-64h-64v64zM85 213h64v-64h-64v64zM192 213h64v-64h-64v64zM85 320h64v-64h-64v64z" />
    <glyph glyph-name="github" unicode="&#xf1d6;" 
d="M213 405v0c118 0 214 -95 214 -213c0 -94 -62 -174 -146 -202c-11 -2 -14 4 -14 10v58c0 20 -6 33 -14 40c47 5 97 23 97 105c0 23 -8 43 -22 58c2 5 10 27 -2 56c0 0 -18 6 -59 -22c-17 5 -35 7 -53 7s-36 -2 -53 -7c-41 27 -59 22 -59 22c-12 -29 -4 -51 -2 -56
c-14 -15 -22 -35 -22 -58c0 -82 50 -100 97 -105c-6 -5 -12 -15 -14 -29c-12 -6 -43 -14 -62 18c-4 6 -16 22 -33 22c-18 0 -6 -10 1 -14c9 -5 20 -24 22 -30c4 -12 17 -36 71 -26c0 -18 1 -34 1 -39c0 -6 -4 -12 -15 -10c-85 28 -146 108 -146 202c0 118 95 213 213 213z
" />
    <glyph glyph-name="bug" unicode="&#xf10d;" horiz-adv-x="384" 
d="M64 128h-43c-12 0 -21 9 -21 21s9 22 21 22h43v28c-7 -2 -15 -1 -21 5l-31 31c-8 8 -8 22 0 30s23 8 31 0l24 -24c7 34 28 63 57 81l-26 26c-8 8 -8 22 0 30s22 8 30 0l39 -39c8 2 16 2 25 2s17 0 25 -2l39 39c8 8 22 8 30 0s8 -22 0 -30l-26 -26c29 -18 50 -47 57 -81
l24 24c8 8 23 8 31 0s8 -22 0 -30l-31 -31c-6 -6 -14 -7 -21 -5v-28h43c12 0 21 -10 21 -22s-9 -21 -21 -21h-43c0 -10 -2 -20 -4 -30c8 4 18 3 25 -4l31 -30c8 -8 8 -22 0 -30s-23 -8 -31 0l-30 30c-2 2 -3 5 -4 7c-21 -42 -65 -71 -115 -71s-94 29 -115 71
c-1 -2 -2 -5 -4 -7l-30 -30c-8 -8 -23 -8 -31 0s-8 22 0 30l31 30c7 7 17 8 25 4c-2 10 -4 20 -4 30zM275 235c-9 37 -43 64 -83 64s-74 -27 -83 -64h166zM275 107h-166c9 -37 43 -64 83 -64s74 27 83 64z" />
    <glyph glyph-name="mobile" unicode="&#xf141;" horiz-adv-x="256" 
d="M43 405h170c24 0 43 -18 43 -42v-342c0 -24 -19 -42 -43 -42h-170c-24 0 -43 18 -43 42v342c0 24 19 42 43 42zM43 363v-320h170v320h-170z" />
    <glyph glyph-name="step-backward" unicode="&#xf1d0;" horiz-adv-x="384" 
d="M171 128v213h-150c-12 0 -21 10 -21 22s9 21 21 21h342c12 0 21 -9 21 -21s-9 -22 -21 -22h-150v-213h48c3 0 6 -1 9 -3c7 -5 10 -14 5 -21l-70 -97c-1 -2 -2 -3 -4 -4c-7 -5 -17 -3 -22 4l-70 97c-2 3 -2 6 -2 9c0 8 7 15 16 15h48zM363 256c12 0 21 -9 21 -21
s-9 -22 -21 -22h-107v43h107zM107 256h21v-43h-107c-12 0 -21 10 -21 22s9 21 21 21h86z" />
    <glyph glyph-name="frying-pan" unicode="&#xf207;" horiz-adv-x="299" 
d="M171 58c13 -7 21 -21 21 -37c0 -24 -19 -42 -43 -42s-42 18 -42 42c0 16 8 30 21 37v50c-72 10 -128 73 -128 148c0 82 67 149 149 149s150 -67 150 -149c0 -75 -56 -138 -128 -148v-50zM149 149c59 0 107 48 107 107s-48 107 -107 107s-106 -48 -106 -107
s47 -107 106 -107z" />
    <glyph glyph-name="mask" unicode="&#xf1c8;" horiz-adv-x="384" 
d="M43 384h298c24 0 43 -19 43 -43v-298c0 -24 -19 -43 -43 -43h-298c-24 0 -43 19 -43 43v298c0 24 19 43 43 43zM341 43c0 165 -133 298 -298 298v-298h298z" />
    <glyph glyph-name="cutlery" unicode="&#xf19d;" horiz-adv-x="277" 
d="M85 171v-171c0 -12 -9 -21 -21 -21s-21 9 -21 21v171c-24 0 -43 18 -43 42v150c0 24 19 42 43 42v-128h42v128c24 0 43 -18 43 -42v-150c0 -24 -19 -42 -43 -42zM277 363v-363c0 -12 -9 -21 -21 -21s-21 9 -21 21v128h-22c-24 0 -42 19 -42 43v192c0 24 18 42 42 42h22
c24 0 42 -18 42 -42z" />
    <glyph glyph-name="star-o" unicode="&#xf168;" horiz-adv-x="405" 
d="M134 78l69 36l68 -36l-13 76l56 54l-77 11l-34 69l-35 -69l-76 -11l55 -54zM203 66l-126 -66l24 139l-101 98l140 21l63 126l62 -126l140 -21l-101 -98l24 -139z" />
    <glyph glyph-name="user-plus" unicode="&#xf15b;" horiz-adv-x="384" 
d="M171 128c68 0 128 -12 170 -65v-42h-341v42c42 53 103 65 171 65zM171 192c-47 0 -86 38 -86 85s39 86 86 86s85 -39 85 -86s-38 -85 -85 -85zM341 149c0 -12 -9 -21 -21 -21s-21 9 -21 21v22h-22c-12 0 -21 9 -21 21s9 21 21 21h22v22c0 12 9 21 21 21s21 -9 21 -21v-22
h22c12 0 21 -9 21 -21s-9 -21 -21 -21h-22v-22z" />
    <glyph glyph-name="truck" unicode="&#xf1ed;" 
d="M171 64c0 -35 -29 -64 -64 -64s-64 29 -64 64c-24 0 -43 19 -43 43v213c0 24 19 43 43 43h234c24 0 43 -19 43 -43h64c43 0 43 -61 43 -85v-128c0 -24 -19 -43 -43 -43h-21c0 -35 -29 -64 -64 -64s-64 29 -64 64h-64zM43 320v-192h234v192h-234zM320 277v-85h64v85h-64z
M299 43c12 0 21 9 21 21s-9 21 -21 21s-22 -9 -22 -21s10 -21 22 -21zM107 43c12 0 21 9 21 21s-9 21 -21 21s-22 -9 -22 -21s10 -21 22 -21z" />
    <glyph glyph-name="wrench" unicode="&#xf162;" horiz-adv-x="213" 
d="M149 201v-180c0 -24 -18 -42 -42 -42s-43 18 -43 42v180c-38 16 -64 54 -64 98c0 59 48 106 107 106h8l-51 -85l85 -43l48 79c11 -17 16 -36 16 -57c0 -44 -26 -82 -64 -98z" />
    <glyph glyph-name="step-forward" unicode="&#xf1d1;" horiz-adv-x="384" 
d="M213 256v-213h150c12 0 21 -10 21 -22s-9 -21 -21 -21h-342c-12 0 -21 9 -21 21s9 22 21 22h150v213h-48c-9 0 -16 7 -16 15c0 3 0 6 2 9l70 97c5 7 15 9 22 4c2 -1 3 -2 4 -4l70 -97c5 -7 2 -16 -5 -21c-3 -2 -6 -3 -9 -3h-48zM363 171c12 0 21 -10 21 -22
s-9 -21 -21 -21h-107v43h107zM107 171h21v-43h-107c-12 0 -21 9 -21 21s9 22 21 22h86z" />
    <glyph glyph-name="backward" unicode="&#xf180;" horiz-adv-x="341" 
d="M171 192c0 2 0 5 1 7s3 4 5 5l146 93c6 4 14 2 17 -5c1 -2 1 -5 1 -7v-186c0 -8 -5 -14 -12 -14c-2 0 -4 1 -6 2l-146 93c-4 3 -6 7 -6 12v-93c0 -8 -5 -14 -12 -14c-2 0 -4 1 -6 2l-147 93c-6 4 -7 12 -4 19c1 2 2 4 4 5l147 93c6 4 13 2 16 -5c1 -2 2 -5 2 -7v-93z" />
    <glyph glyph-name="file-excel" unicode="&#xf1a2;" horiz-adv-x="341" 
d="M43 405h213l85 -85v-299c0 -24 -18 -42 -42 -42h-256c-24 0 -43 18 -43 42v342c0 24 19 42 43 42zM235 363h-192v-342h256v278h-64v64zM64 192h64l43 -43l42 43h64l-64 -64l64 -64h-64l-42 43l-43 -43h-64l64 64z" />
  </font>
</defs>
</svg>
